<?xml version="1.0" encoding="UTF-8" standalone="no"?>
<svg width="62px" height="35px" viewBox="0 0 62 35" version="1.1" xmlns="http://www.w3.org/2000/svg" xmlns:xlink="http://www.w3.org/1999/xlink" xmlns:sketch="http://www.bohemiancoding.com/sketch/ns">
    <!-- Generator: Sketch 3.2.2 (9983) - http://www.bohemiancoding.com/sketch -->
    <title>Fill 5</title>
    <desc>Created with Sketch.</desc>
    <defs></defs>
    <g id="Viewer" stroke="none" stroke-width="1" fill="none" fill-rule="evenodd" sketch:type="MSPage">
        <g id="Desktop-HD" sketch:type="MSArtboardGroup" transform="translate(-59.000000, -469.000000)" fill="#EC1D25">
            <g id="Knoppen_side" sketch:type="MSLayerGroup" transform="translate(15.800316, 82.463054)">
                <path d="M104.72501,403.422667 L86.320933,387.247432 C86.0989672,387.050483 85.7876125,386.992616 85.5104064,387.092106 C85.2311915,387.193627 85.0283087,387.438291 84.980099,387.7327 L83.6513174,395.67565 L49.4766225,395.67565 C49.0768832,395.67565 48.7374061,395.967014 48.6701134,396.363958 L48.2171425,399.077597 C48.1759633,399.3182 48.2422517,399.562864 48.3979291,399.747631 C48.5536064,399.934428 48.7826028,400.041025 49.0216429,400.041025 L64.4718672,400.041025 L64.1434382,402.293761 L44.6586594,402.293761 C44.2609289,402.293761 43.9194431,402.585124 43.8521503,402.982069 L43.4624547,405.323128 C43.4222799,405.562716 43.487564,405.80738 43.6432413,405.994177 C43.799923,406.178944 44.0269107,406.286556 44.2669551,406.286556 L67.9208739,406.286556 L67.5934492,408.539292 L52.8854544,408.539292 C52.4877239,408.539292 52.1462381,408.830655 52.0799496,409.2276 L51.7083327,411.452926 C51.6681579,411.692514 51.7344463,411.938193 51.8891193,412.123975 C52.0447967,412.308742 52.2737931,412.416353 52.5128331,412.416353 L80.8511338,412.416353 L79.570562,420.084184 C79.5153216,420.409049 79.6579422,420.735945 79.9311308,420.915636 C80.0667208,421.003959 80.2213937,421.047612 80.3750624,421.047612 C80.5337528,421.047612 80.6934477,421.000913 80.8320507,420.906499 L104.64466,404.732279 C104.856582,404.588121 104.988155,404.353609 105.004224,404.097777 C105.021299,403.840931 104.916844,403.591191 104.72501,403.422667" id="Fill-5" sketch:type="MSShapeGroup"></path>
            </g>
        </g>
    </g>
</svg>