<?xml version="1.0" encoding="UTF-8" standalone="no"?>
<svg width="16px" height="30px" viewBox="0 0 16 30" version="1.1" xmlns="http://www.w3.org/2000/svg" xmlns:xlink="http://www.w3.org/1999/xlink" xmlns:sketch="http://www.bohemiancoding.com/sketch/ns">
    <!-- Generator: Sketch 3.2.2 (9983) - http://www.bohemiancoding.com/sketch -->
    <title>Shape</title>
    <desc>Created with Sketch.</desc>
    <defs></defs>
    <g id="Viewer" stroke="none" stroke-width="1" fill="none" fill-rule="evenodd" sketch:type="MSPage">
        <g id="Desktop-HD" sketch:type="MSArtboardGroup" transform="translate(-31.000000, -218.000000)" fill="#CAC7C7">
            <g id="Knoppen_side" sketch:type="MSLayerGroup" transform="translate(15.800316, 82.463054)">
                <g id="Shape-+-LinkedIn-+-Shape-+-Shape-+-Shape" transform="translate(14.483623, 135.665025)" sketch:type="MSShapeGroup">
                    <g id="Shape-+-LinkedIn-+-Shape">
                        <path d="M16.0200648,0.286191314 L12.2322428,0.280219664 C7.97709608,0.280219664 5.22753719,3.05255806 5.22753719,7.34348698 L5.22753719,10.6001262 L1.41905325,10.6001262 C1.08998128,10.6001262 0.823502865,10.8622816 0.823502865,11.1856464 L0.823502865,15.9041455 C0.823502865,16.2275103 1.09028513,16.4893671 1.41905325,16.4893671 L5.22723334,16.4893671 L5.22723334,28.3956424 C5.22723334,28.7190072 5.49371175,28.9808641 5.82278372,28.9808641 L10.7913755,28.9808641 C11.1204475,28.9808641 11.3869259,28.7187087 11.3869259,28.3956424 L11.3869259,16.4893671 L15.8395766,16.4893671 C16.1686485,16.4893671 16.435127,16.2275103 16.435127,15.9041455 L16.4369501,11.1856464 C16.4369501,11.0303835 16.3740527,10.8816895 16.2625389,10.7718111 C16.1507213,10.6619327 15.999099,10.6001262 15.8410958,10.6001262 L11.3872297,10.6001262 L11.3872297,7.83943249 C11.3872297,6.51253192 11.7090093,5.83892983 13.467706,5.83892983 L16.0194571,5.83803408 C16.3482252,5.83803408 16.6147036,5.57587866 16.6147036,5.25281241 L16.6147036,0.871412989 C16.6147036,0.54864532 16.3485291,0.286788479 16.0200648,0.286191314 L16.0200648,0.286191314 Z" id="Shape"></path>
                    </g>
                </g>
            </g>
        </g>
    </g>
</svg>