<?xml version="1.0" encoding="UTF-8" standalone="no"?>
<svg width="57px" height="42px" viewBox="0 0 57 42" version="1.1" xmlns="http://www.w3.org/2000/svg" xmlns:xlink="http://www.w3.org/1999/xlink" xmlns:sketch="http://www.bohemiancoding.com/sketch/ns">
    <!-- Generator: Sketch 3.2.2 (9983) - http://www.bohemiancoding.com/sketch -->
    <title>Fill 1 + Fill 2</title>
    <desc>Created with Sketch.</desc>
    <defs></defs>
    <g id="Viewer" stroke="none" stroke-width="1" fill="none" fill-rule="evenodd" sketch:type="MSPage">
        <g id="Desktop-HD" sketch:type="MSArtboardGroup" transform="translate(-62.000000, -768.000000)" fill="#EB1D25">
            <g id="Knoppen_side" sketch:type="MSLayerGroup" transform="translate(15.800316, 82.463054)">
                <g id="Fill-1-+-Fill-2" transform="translate(46.084256, 684.975369)" sketch:type="MSShapeGroup">
                    <path d="M18.6923733,33.2138218 C18.5708445,33.2138218 18.455342,33.224989 18.3368263,33.224989 C15.3538473,33.224989 14.2731451,35.1833162 13.5720948,34.1701433 C12.8680314,33.1569704 15.0203964,30.8961125 17.709095,31.0626059 C15.1399165,24.5541373 15.3598735,18.6943837 16.6073011,11.5981123 C7.45146382,10.1382499 0.370655051,1.20243018 0.370655051,11.6549637 C0.370655051,22.9958002 8.69989578,42.5191755 18.97661,42.5191755 C20.5203268,42.5191755 22.0208556,42.0704557 23.455096,41.2775819 C21.785833,40.1963903 19.7851279,35.2848366 18.6923733,33.2138218 L18.6923733,33.2138218 Z M8.66775594,20.698395 C5.83944991,19.5958842 3.94621239,17.6446634 4.43835371,16.3360663 C4.93752562,15.0325452 7.63626791,14.8711279 10.4706002,15.9716083 C13.2999106,17.0731039 15.1921437,19.030416 14.6909631,20.3308914 C14.1978174,21.6354277 11.4970663,21.7998907 8.66775594,20.698395 L8.66775594,20.698395 Z" id="Fill-1"></path>
                    <path d="M38.4111703,11.4153757 C28.717995,7.9646996 24.6422614,-5.65932916 20.9130354,5.02974676 C17.1858182,15.7228835 18.6180499,36.9406332 28.308212,40.3892789 C38.0023917,43.8379247 52.2734855,28.2251126 56.0047202,17.5340062 C59.7319374,6.8378239 48.1033411,14.8680823 38.4111703,11.4153757 L38.4111703,11.4153757 Z M23.1839161,10.8966068 C24.1571507,9.75348788 26.9603475,10.5605745 29.4421458,12.704684 C31.928966,14.8538694 33.1613281,17.5197934 32.1941197,18.6669732 C31.2269114,19.8121225 28.4257233,18.9999599 25.9409119,16.8548352 C23.455096,14.7097106 22.222734,12.040741 23.1839161,10.8966068 L23.1839161,10.8966068 Z M36.1533464,34.333591 C35.7415547,35.5274702 33.1141227,35.6777203 30.3008822,34.6706385 C27.4866374,33.6666024 25.534142,31.8889814 25.9579862,30.7011935 C26.3677691,29.51036 28.188692,31.6554846 31.0039412,32.6595207 C33.8181861,33.6635568 36.5711643,33.1447879 36.1533464,34.333591 L36.1533464,34.333591 Z M44.7879156,23.5846181 C41.5196955,23.7033969 38.8269795,22.5826124 38.7737478,21.0750355 C38.7185075,19.5694889 41.3318783,18.2527702 44.5920635,18.1360218 C47.8562661,18.0141974 50.5499865,19.1380275 50.6062313,20.6435741 C50.6614716,22.1481054 48.0521183,23.4668545 44.7879156,23.5846181 L44.7879156,23.5846181 Z" id="Fill-2"></path>
                </g>
            </g>
        </g>
    </g>
</svg>