<?xml version="1.0" encoding="UTF-8" standalone="no"?>
<svg width="32px" height="30px" viewBox="0 0 32 30" version="1.1" xmlns="http://www.w3.org/2000/svg" xmlns:xlink="http://www.w3.org/1999/xlink" xmlns:sketch="http://www.bohemiancoding.com/sketch/ns">
    <!-- Generator: Sketch 3.2.2 (9983) - http://www.bohemiancoding.com/sketch -->
    <title>LinkedIn</title>
    <desc>Created with Sketch.</desc>
    <defs></defs>
    <g id="Viewer" stroke="none" stroke-width="1" fill="none" fill-rule="evenodd" sketch:type="MSPage">
        <g id="Desktop-HD" sketch:type="MSArtboardGroup" transform="translate(-184.000000, -218.000000)" fill="#CAC7C7">
            <g id="Knoppen_side" sketch:type="MSLayerGroup" transform="translate(15.800316, 82.463054)">
                <g id="Shape-+-LinkedIn-+-Shape-+-Shape-+-Shape" transform="translate(14.483623, 135.665025)" sketch:type="MSShapeGroup">
                    <g id="Shape-+-LinkedIn-+-Shape">
                        <path d="M185.653717,17.9401065 L185.653717,29.2610837 L178.880648,29.2610837 L178.880648,18.6981728 C178.880648,16.0446008 177.901028,14.233816 175.44917,14.233816 C173.577711,14.233816 172.463964,15.4542754 171.974154,16.6345859 C171.795435,17.0568301 171.749438,17.6440933 171.749438,18.2350991 L171.749438,29.2610837 L164.974263,29.2610837 C164.974263,29.2610837 165.065554,11.3709932 164.974263,9.51733761 L171.749087,9.51733761 L171.749087,12.315854 C171.735394,12.3369492 171.717487,12.3594054 171.704495,12.3798201 L171.749087,12.3798201 L171.749087,12.315854 C172.649003,10.9725662 174.256422,9.05358346 177.85433,9.05358346 C182.312125,9.05358346 185.653717,11.8755768 185.653717,17.9401065 L185.653717,17.9401065 Z M157.886943,0 C155.569212,0 154.053084,1.47326154 154.053084,3.41061748 C154.053084,5.30578302 155.525323,6.82361668 157.797057,6.82361668 L157.842351,6.82361668 C160.205025,6.82361668 161.674455,5.30612327 161.674455,3.41061748 C161.629863,1.47326154 160.205025,0 157.886943,0 L157.886943,0 Z M154.455466,29.2610837 L161.228183,29.2610837 L161.228183,9.51733761 L154.455466,9.51733761 L154.455466,29.2610837 L154.455466,29.2610837 Z" id="LinkedIn"></path>
                    </g>
                </g>
            </g>
        </g>
    </g>
</svg>