<?xml version="1.0" encoding="UTF-8" standalone="no"?>
<svg width="36px" height="42px" viewBox="0 0 36 42" version="1.1" xmlns="http://www.w3.org/2000/svg" xmlns:xlink="http://www.w3.org/1999/xlink" xmlns:sketch="http://www.bohemiancoding.com/sketch/ns">
    <!-- Generator: Sketch 3.2.2 (9983) - http://www.bohemiancoding.com/sketch -->
    <title>Fill 11 + Fill 12 + Fill 13</title>
    <desc>Created with Sketch.</desc>
    <defs></defs>
    <g id="Viewer" stroke="none" stroke-width="1" fill="none" fill-rule="evenodd" sketch:type="MSPage">
        <g id="Desktop-HD" sketch:type="MSArtboardGroup" transform="translate(-222.000000, -571.000000)" fill="#EC1D25">
            <g id="Knoppen_side" sketch:type="MSLayerGroup" transform="translate(15.800316, 82.463054)">
                <g id="Fill-11-+-Fill-12-+-Fill-13" transform="translate(205.404112, 488.128079)" sketch:type="MSShapeGroup">
                    <path d="M13.4976098,8.94545765 C15.3024628,8.94545765 16.7658299,10.4235937 16.7658299,12.2479141 C16.7658299,14.0742649 15.3024628,15.5513858 13.4976098,15.5513858 C11.6937612,15.5513858 10.2283854,14.0742649 10.2283854,12.2479141 C10.2283854,10.4235937 11.6937612,8.94545765 13.4976098,8.94545765" id="Fill-11"></path>
                    <path d="M20.6035279,22.4314188 C21.7605621,22.4314188 22.6976394,23.3786035 22.6976394,24.5491329 C22.6976394,25.7186472 21.7605621,26.6678623 20.6035279,26.6678623 C19.4434805,26.6678623 18.5064032,25.7186472 18.5064032,24.5491329 C18.5064032,23.3786035 19.4434805,22.4314188 20.6035279,22.4314188" id="Fill-12"></path>
                    <path d="M32.3971553,18.3276278 C35.0286048,5.29647781 24.5580471,-0.664796173 12.9304552,1.21028439 C1.30587636,3.08536495 1.74177295,10.1928035 1.05779696,13.5866283 C-0.303124444,22.0859106 8.35454529,31.5851682 8.35454529,31.5851682 L7.86039523,41.4641118 L21.9607462,41.4641118 L23.0394396,36.9200617 C23.0394396,36.9200617 23.6500966,37.9586147 27.2919424,38.2723126 C30.9378056,38.58398 30.4928697,34.0866292 30.4928697,34.0866292 C30.4928697,34.0866292 32.9184233,33.0054377 32.9184233,32.1963206 C32.9184233,31.3851731 31.4811698,30.3364681 31.4811698,30.3364681 C31.4811698,30.3364681 33.0278997,30.6186946 33.5843207,29.9608429 C34.1387329,29.3029911 32.9023534,26.9314761 32.9023534,26.9314761 C32.9023534,26.9314761 34.8076434,26.8827463 35.9255072,25.6350614 C37.0473885,24.3914374 32.3971553,20.7011732 32.3971553,18.3276278 L32.3971553,18.3276278 Z M12.2615447,20.1093097 C12.2615447,20.1093097 12.1811951,19.2281132 12.1430291,18.7895453 C11.7925039,18.6951314 11.4550356,18.5702614 11.1296197,18.4240721 C10.7479591,18.752998 9.97861164,19.4098346 9.97861164,19.4098346 C9.97861164,19.4098346 9.84804354,19.4808988 9.78275948,19.5184613 C9.71747543,19.5529783 8.49716583,19.4098346 8.49716583,19.4098346 L6.39501934,16.9022823 L6.39501934,15.4058726 C6.39501934,15.4058726 7.20454159,14.713504 7.60628961,14.3683348 C7.51991379,14.0333177 7.46768654,13.690179 7.44358166,13.3368882 C6.91427865,13.091209 5.856677,12.6039114 5.856677,12.6039114 L5.43182848,11.3572417 L5.48104261,11.1521707 L6.83694216,8.16950325 L8.27118257,7.7867716 C8.27118257,7.7867716 9.1821462,8.20909618 9.63913457,8.41822807 C9.91533633,8.18980732 10.2176517,7.98473625 10.5340283,7.80301485 C10.4888316,7.24566822 10.4004471,6.13402057 10.4004471,6.13402057 L11.448005,5.07617869 L14.686094,4.81121062 L15.733652,5.8700677 C15.733652,5.8700677 15.8009448,6.71573208 15.834089,7.13805666 C16.2579331,7.25175944 16.6576724,7.40607034 17.0413418,7.59286776 C17.3918669,7.28830676 18.0949259,6.68019996 18.0949259,6.68019996 L19.5793848,6.68019996 L21.6935838,9.17455456 L21.6935838,10.6719795 C21.6935838,10.6719795 20.8348474,11.4140931 20.4069857,11.7866727 C20.4692567,12.0892033 20.5044096,12.4008708 20.5184708,12.7155838 C21.061835,13.031312 22.1425372,13.6658141 22.1425372,13.6658141 L22.5201803,15.1134941 L20.8951096,17.9560634 L19.4608692,18.3357495 C19.4608692,18.3357495 18.6192071,17.8454062 18.1963673,17.6007422 C17.959336,17.7885549 17.7052303,17.9530178 17.441081,18.1063135 C17.4902952,18.6748274 17.5927409,19.8088095 17.5927409,19.8088095 L16.5441786,20.869697 L13.3111114,21.1661364 L12.2615447,20.1093097 L12.2615447,20.1093097 Z M25.4539452,28.478646 L24.5329379,28.7222948 C24.5329379,28.7222948 23.9955999,28.4065665 23.7234156,28.2502252 C23.5707514,28.3700192 23.4080434,28.4756004 23.2373005,28.5720447 C23.2694404,28.9385331 23.3357288,29.6654187 23.3357288,29.6654187 L22.6648096,30.3445897 L20.5887767,30.5364631 L19.9178575,29.8572921 C19.9178575,29.8572921 19.8666347,29.2928391 19.8415254,29.0106125 C19.6165465,28.9497003 19.4026157,28.8664537 19.1927024,28.7740702 C18.9476361,28.9852324 18.453486,29.407557 18.453486,29.407557 C18.453486,29.407557 18.3691189,29.4542564 18.3289441,29.4765909 C18.287765,29.5009557 17.503352,29.407557 17.503352,29.407557 L16.1564917,27.7964293 L16.1564917,26.836047 C16.1564917,26.836047 16.6747467,26.3934183 16.9328698,26.172104 C16.8776294,25.9558657 16.8444852,25.7365818 16.8284153,25.5091762 C16.4869295,25.3528349 15.8099841,25.0401523 15.8099841,25.0401523 L15.5388042,24.2401721 L15.5689353,24.1081956 L16.4377154,22.1945373 L17.3577183,21.9498733 C17.3577183,21.9498733 17.943266,22.2189022 18.2355377,22.3559547 C18.4123069,22.2097654 18.6061503,22.0767737 18.8100374,21.9610406 C18.7829194,21.6016586 18.7256703,20.890001 18.7256703,20.890001 L19.3965895,20.2098148 L21.4736267,20.0402759 L22.1455503,20.7214773 C22.1455503,20.7214773 22.1887382,21.2605503 22.2108343,21.5326248 C22.4820142,21.6067346 22.7371242,21.7052093 22.9841993,21.8260185 C23.2081738,21.6300843 23.6581316,21.239231 23.6581316,21.239231 L24.6122831,21.239231 L25.9701914,22.8412219 L25.9701914,23.800589 C25.9701914,23.800589 25.4187922,24.279765 25.1445992,24.5173226 C25.1857784,24.7132568 25.2068702,24.9112215 25.2149051,25.1132469 C25.5624172,25.3162876 26.2584456,25.7223689 26.2584456,25.7223689 L26.4974857,26.6522952 L25.4539452,28.478646 L25.4539452,28.478646 Z" id="Fill-13"></path>
                </g>
            </g>
        </g>
    </g>
</svg>