<?xml version="1.0" encoding="UTF-8" standalone="no"?>
<svg width="31px" height="44px" viewBox="0 0 31 44" version="1.1" xmlns="http://www.w3.org/2000/svg" xmlns:xlink="http://www.w3.org/1999/xlink" xmlns:sketch="http://www.bohemiancoding.com/sketch/ns">
    <!-- Generator: Sketch 3.2.2 (9983) - http://www.bohemiancoding.com/sketch -->
    <title>Fill 3</title>
    <desc>Created with Sketch.</desc>
    <defs></defs>
    <g id="Viewer" stroke="none" stroke-width="1" fill="none" fill-rule="evenodd" sketch:type="MSPage">
        <g id="Desktop-HD" sketch:type="MSArtboardGroup" transform="translate(-225.000000, -669.000000)" fill="#EC1D25">
            <g id="Knoppen_side" sketch:type="MSLayerGroup" transform="translate(15.800316, 82.463054)">
                <path d="M222.035958,591.112018 C222.035958,588.593298 224.055746,586.551724 226.547588,586.551724 C229.03943,586.551724 231.059219,588.593298 231.059219,591.112018 C231.059219,593.630737 229.03943,595.673326 226.547588,595.673326 C224.055746,595.673326 222.035958,593.630737 222.035958,591.112018 L222.035958,591.112018 Z M216.26083,606.618233 C216.80319,604.976649 219.509967,595.673326 219.509967,595.673326 C217.886905,595.673326 215.540697,595.488559 213.375275,597.312879 C211.209853,599.1372 209.765569,602.239661 209.405001,604.609146 C209.043427,606.80097 210.668498,607.529886 212.473351,608.076065 C214.275191,608.624275 215.901266,607.895359 216.26083,606.618233 L216.26083,606.618233 Z M239.894662,600.329049 C239.57929,599.691501 238.94051,599.340241 238.27863,599.339225 L238.27863,597.496631 L236.473777,597.496631 L236.473777,600.017381 L231.435857,602.565542 L226.942306,597.871241 C226.934271,597.862104 226.92021,597.858044 226.91117,597.847892 C226.652043,597.527087 226.174967,597.248922 225.826451,597.131158 L221.31482,596.037784 L217.886905,607.895359 C217.526337,610.084137 217.526337,611.724706 219.691758,613.549026 L225.647673,618.50728 L225.647673,628.507032 C225.647673,629.516145 226.453178,630.331353 227.451521,630.331353 C228.45087,630.331353 229.256374,629.516145 229.256374,628.507032 L229.256374,617.562125 C229.256374,617.077873 229.068557,616.614941 228.727071,616.272817 L228.443839,615.985514 L224.20138,610.446565 L226.155884,602.295497 L229.762577,606.059871 C230.111093,606.42636 230.582143,606.618233 231.059219,606.618233 C231.334416,606.618233 231.610618,606.55326 231.865728,606.42636 L236.473777,604.096468 L236.473777,630.331353 L238.27863,630.331353 L238.27863,603.184816 L239.08514,602.775689 C239.975011,602.325954 240.340602,601.230549 239.894662,600.329049 L239.894662,600.329049 Z M217.524328,613.183553 L216.621399,619.021988 L216.621399,619.037216 L213.142261,627.829892 C212.770645,628.766924 213.220602,629.828827 214.146631,630.203437 C214.365584,630.292775 214.593576,630.331353 214.817551,630.331353 C215.532662,630.331353 216.209608,629.899891 216.493844,629.184173 L219.969969,620.398603 C220.08748,620.209776 220.1839,619.998613 220.233114,619.752934 L220.955256,617.199698 C218.608043,615.191625 217.524328,614.460679 217.524328,613.183553 L217.524328,613.183553 Z" id="Fill-3" sketch:type="MSShapeGroup"></path>
            </g>
        </g>
    </g>
</svg>