<?xml version="1.0" encoding="UTF-8" standalone="no"?>
<svg width="45px" height="43px" viewBox="0 0 45 43" version="1.1" xmlns="http://www.w3.org/2000/svg" xmlns:xlink="http://www.w3.org/1999/xlink" xmlns:sketch="http://www.bohemiancoding.com/sketch/ns">
    <!-- Generator: Sketch 3.2.2 (9983) - http://www.bohemiancoding.com/sketch -->
    <title>Fill 4</title>
    <desc>Created with Sketch.</desc>
    <defs></defs>
    <g id="Viewer" stroke="none" stroke-width="1" fill="none" fill-rule="evenodd" sketch:type="MSPage">
        <g id="Desktop-HD" sketch:type="MSArtboardGroup" transform="translate(-217.000000, -767.000000)" fill="#EC1D25">
            <g id="Knoppen_side" sketch:type="MSLayerGroup" transform="translate(15.800316, 82.463054)">
                <path d="M241.2301,693.910174 L232.391643,693.910174 L232.391643,689.442264 L227.971411,684.975369 L219.130946,684.975369 L214.712722,689.442264 L214.712722,693.910174 L205.873261,693.910174 C203.441681,693.910174 201.454033,695.920277 201.454033,698.378084 L201.454033,722.94702 C201.454033,725.403812 203.441681,727.41493 205.873261,727.41493 L241.2301,727.41493 C243.660675,727.41493 245.650332,725.403812 245.650332,722.94702 L245.650332,698.378084 C245.650332,695.920277 243.660675,693.910174 241.2301,693.910174 L241.2301,693.910174 Z M219.130946,689.442264 L227.971411,689.442264 L227.971411,693.910174 L219.130946,693.910174 L219.130946,689.442264 Z" id="Fill-4" sketch:type="MSShapeGroup"></path>
            </g>
        </g>
    </g>
</svg>