<?xml version="1.0" encoding="UTF-8" standalone="no"?>
<svg width="45px" height="44px" viewBox="0 0 45 44" version="1.1" xmlns="http://www.w3.org/2000/svg" xmlns:xlink="http://www.w3.org/1999/xlink" xmlns:sketch="http://www.bohemiancoding.com/sketch/ns">
    <!-- Generator: Sketch 3.2.2 (9983) - http://www.bohemiancoding.com/sketch -->
    <title>Fill 8 + Fill 9</title>
    <desc>Created with Sketch.</desc>
    <defs></defs>
    <g id="Viewer" stroke="none" stroke-width="1" fill="none" fill-rule="evenodd" sketch:type="MSPage">
        <g id="Desktop-HD" sketch:type="MSArtboardGroup" transform="translate(-69.000000, -670.000000)" fill="#EC1D25">
            <g id="Knoppen_side" sketch:type="MSLayerGroup" transform="translate(15.800316, 82.463054)">
                <g id="Fill-8-+-Fill-9" transform="translate(52.667721, 586.551724)" sketch:type="MSShapeGroup">
                    <path d="M32.9311688,27.9077374 C32.2502059,29.0183698 31.5049633,30.1767168 30.7004629,31.3787176 C37.4779519,32.4030577 40.9460417,34.5969121 40.9460417,35.6892709 C40.9460417,37.1420269 34.7992971,40.5510797 22.8774247,40.5510797 C10.9555523,40.5510797 4.8088077,37.1420269 4.8088077,35.6892709 C4.8088077,34.5969121 8.27689745,32.4030577 15.0543865,31.3787176 C14.2498861,30.1767168 13.5056479,29.0183698 12.824685,27.9077374 C6.13558053,29.1828327 1.03036762,31.8040878 1.03036762,35.6892709 C1.03036762,41.3876072 12.0221933,44.3692594 22.8774247,44.3692594 C33.7346648,44.3692594 44.7244818,41.3876072 44.7244818,35.6892709 C44.7244818,31.8040878 39.6202732,29.1828327 32.9311688,27.9077374" id="Fill-8"></path>
                    <path d="M22.8774247,35.3258281 C23.8617073,35.3258281 24.7847234,34.8537586 25.3652493,34.0517479 C29.0824228,28.9249711 35.654016,19.1353653 35.654016,14.0187405 C35.654016,6.88592189 29.9361373,1.10332369 22.8774247,1.10332369 C15.8207208,1.10332369 10.1018378,6.88592189 10.1018378,14.0187405 C10.1018378,19.1343501 16.673431,28.9249711 20.3906045,34.0517479 C20.9731391,34.8537586 21.8971595,35.3258281 22.8774247,35.3258281 L22.8774247,35.3258281 Z M17.5622985,13.7639245 C17.5622985,10.7975003 19.9416511,8.39248364 22.8774247,8.39248364 C25.812194,8.39248364 28.1925509,10.7975003 28.1925509,13.7639245 C28.1925509,16.7303486 25.812194,19.1353653 22.8774247,19.1353653 C19.9416511,19.1363805 17.5622985,16.7313638 17.5622985,13.7639245 L17.5622985,13.7639245 Z" id="Fill-9"></path>
                </g>
            </g>
        </g>
    </g>
</svg>