<?xml version="1.0" encoding="UTF-8" standalone="no"?>
<svg width="54px" height="46px" viewBox="0 0 54 46" version="1.1" xmlns="http://www.w3.org/2000/svg" xmlns:xlink="http://www.w3.org/1999/xlink" xmlns:sketch="http://www.bohemiancoding.com/sketch/ns">
    <!-- Generator: Sketch 3.2.2 (9983) - http://www.bohemiancoding.com/sketch -->
    <title>Fill 7</title>
    <desc>Created with Sketch.</desc>
    <defs></defs>
    <g id="Viewer" stroke="none" stroke-width="1" fill="none" fill-rule="evenodd" sketch:type="MSPage">
        <g id="Desktop-HD" sketch:type="MSArtboardGroup" transform="translate(-64.000000, -569.000000)" fill="#EC1D25">
            <g id="Knoppen_side" sketch:type="MSLayerGroup" transform="translate(15.800316, 82.463054)">
                <path d="M94.0036827,499.924609 C86.9871536,492.833413 79.3680025,499.924609 79.3680025,499.924609 L79.3680025,501.131685 L77.5792194,501.131685 L77.5792194,499.889077 C80.0570003,498.891132 81.8146479,496.453628 81.8146479,493.587709 C81.8146479,489.833488 78.8045509,486.79803 75.0934036,486.79803 C71.3792432,486.79803 68.3731637,489.833488 68.3731637,493.587709 C68.3731637,496.384595 70.043431,498.776414 72.4298142,499.823088 L72.4298142,501.131685 L70.8188047,501.131685 L70.8188047,499.924609 C70.8188047,499.924609 63.200658,492.833413 56.1861376,499.924609 C56.1861376,499.924609 51.7056429,502.949915 48.717642,499.924609 C48.717642,499.924609 49.0169443,508.982253 59.7687255,508.982253 C59.7687255,508.982253 64.506339,509.89289 70.8188047,506.949816 L70.8188047,505.133617 L72.4298142,505.133617 L72.4298142,506.790429 L73.598901,506.790429 L73.9152775,513.189255 C70.25234,513.007534 67.4390995,512.094866 67.443117,511.002507 C67.4491432,510.06649 69.4930362,509.298996 72.3554909,508.994435 L72.3574996,508.623886 C68.8241258,508.94266 66.2579604,509.866495 66.2499254,510.987279 C66.2438992,512.024817 68.3982729,512.921242 71.484702,513.341536 C69.166616,513.723252 67.5917638,514.422728 67.5917638,515.245042 C67.5917638,516.129284 69.386573,516.875459 71.9708171,517.233826 C69.8435614,517.555645 68.3892336,518.193193 68.3811986,518.936322 C68.3751724,519.742393 70.0293698,520.437807 72.4067137,520.767748 C70.5044369,521.062157 69.204782,521.632702 69.204782,522.296645 C69.204782,522.989013 70.5978433,523.574786 72.6065834,523.861073 C71.129155,524.108783 70.1227763,524.565624 70.1227763,525.087439 C70.1227763,525.693515 71.4143961,526.208223 73.2383321,526.421416 C72.1023896,526.621411 71.3250072,526.967595 71.3250072,527.379768 C71.3250072,527.946251 72.7733088,528.418321 74.6725725,528.504613 L74.8252368,531.593877 L75.8024888,531.593877 L75.9069433,528.504613 C77.8242857,528.422382 79.2936791,527.957418 79.2936791,527.379768 C79.2936791,526.94323 78.4700957,526.581818 77.2367292,526.389944 C78.9371277,526.161524 80.1263018,525.670165 80.1263018,525.087439 C80.1263018,524.580852 79.2354256,524.141269 77.8534124,523.885438 C79.9505371,523.610318 81.4118955,523.005257 81.4118955,522.292584 C81.4118955,521.636762 80.1966077,521.070279 78.343545,520.770794 C80.6355175,520.465218 82.2324658,519.80026 82.2364833,519.018553 C82.2405008,518.256135 80.7279195,517.595238 78.5323666,517.250069 C81.1808904,516.899824 83.0279269,516.137406 83.0279269,515.245042 C83.0279269,514.41156 81.4932495,513.695842 79.1580891,513.322247 C82.0205437,512.917181 84.0001571,512.080653 84.0071877,511.100982 C84.0112052,509.944666 81.3124629,508.962964 77.6344598,508.623886 L77.6344598,509.020831 C80.550146,509.34062 82.648275,510.148721 82.6402401,511.0888 C82.6362226,512.154763 79.958572,513.026823 76.4412682,513.192301 L76.663234,506.786368 L77.5852456,506.786368 L77.5852456,505.133617 L79.3720199,505.133617 L79.3720199,506.949816 C85.6844856,509.89289 90.4210947,508.982253 90.4210947,508.982253 C101.170867,508.982253 101.472178,499.924609 101.472178,499.924609 C98.483173,502.949915 94.0036827,499.924609 94.0036827,499.924609 L94.0036827,499.924609 Z M68.6282736,515.253164 C68.6282736,514.454199 70.3819037,513.76183 72.8496409,513.487725 L73.9343606,513.553713 L74.1101253,517.120123 C70.9975826,516.961751 68.6282736,516.192227 68.6282736,515.253164 L68.6282736,515.253164 Z M69.313254,518.947489 C69.3182759,518.22771 70.917233,517.618588 73.1499476,517.386106 L73.1499476,517.367832 L74.1231821,517.433821 L74.282877,520.658106 C71.4626059,520.508872 69.305219,519.792138 69.313254,518.947489 L69.313254,518.947489 Z M70.024348,522.300705 C70.024348,521.668234 71.4264486,521.122054 73.3940095,520.912922 L73.3940095,520.878406 L74.2999513,520.936272 L74.4385543,523.778841 C71.9416904,523.665139 70.024348,523.050941 70.024348,522.300705 L70.024348,522.300705 Z M70.7977129,525.09556 C70.7977129,524.584913 71.9115593,524.152436 73.4753634,523.963608 L74.4506068,524.026551 L74.5641006,526.307713 C72.4458842,526.239694 70.7977129,525.724986 70.7977129,525.09556 L70.7977129,525.09556 Z M71.8603364,527.387889 C71.8603364,526.983838 72.725099,526.637654 73.9524392,526.491465 L74.5721355,526.518875 L74.6625288,528.351317 C73.0675892,528.268071 71.8603364,527.872141 71.8603364,527.387889 L71.8603364,527.387889 Z M78.6820177,527.387889 C78.6820177,527.86402 77.4868174,528.26401 75.9139739,528.351317 L75.9762448,526.511769 L76.4513119,526.475222 C77.7539798,526.605168 78.6820177,526.967595 78.6820177,527.387889 L78.6820177,527.387889 Z M79.3569544,525.09556 C79.3569544,525.681333 77.9116659,526.177767 75.9842798,526.299591 L76.0626207,524.034673 L76.8319681,523.99508 C78.3073877,524.187968 79.3569544,524.605217 79.3569544,525.09556 L79.3569544,525.09556 Z M80.476827,522.300705 C80.476827,522.984952 78.8738524,523.555497 76.6963782,523.739249 L76.6140198,523.727066 L76.6059849,523.74737 L76.0706556,523.782902 L76.1710926,520.956576 L77.0931043,520.912922 C79.062674,521.122054 80.476827,521.656051 80.476827,522.300705 L80.476827,522.300705 Z M81.1668292,519.022614 C81.1668292,519.875385 79.000403,520.555571 76.1761145,520.666228 L76.2926214,517.437881 L77.257821,517.382045 L77.257821,517.398288 C79.5387454,517.65412 81.1788816,518.282531 81.1668292,519.022614 L81.1668292,519.022614 Z M77.6304423,513.494832 C80.0821096,513.769952 81.8397571,514.454199 81.8397571,515.253164 C81.8397571,516.199333 79.4423258,516.973934 76.299652,517.120123 L76.4241939,513.565896 L77.6304423,513.494832 L77.6304423,513.494832 Z M75.3113519,495.806944 C74.0227451,495.806944 72.9822178,494.754178 72.9822178,493.453703 C72.9822178,492.153227 74.0227451,491.095385 75.3113519,491.095385 C76.5939324,491.095385 77.6384773,492.153227 77.6384773,493.453703 C77.6384773,494.754178 76.5939324,495.806944 75.3113519,495.806944 L75.3113519,495.806944 Z" id="Fill-7" sketch:type="MSShapeGroup"></path>
            </g>
        </g>
    </g>
</svg>