<?xml version="1.0" encoding="utf-8"?>
<!-- Generator: Adobe Illustrator 15.1.0, SVG Export Plug-In . SVG Version: 6.00 Build 0)  -->
<!DOCTYPE svg PUBLIC "-//W3C//DTD SVG 1.1//EN" "http://www.w3.org/Graphics/SVG/1.1/DTD/svg11.dtd">
<svg version="1.1" id="Layer_1" xmlns="http://www.w3.org/2000/svg" xmlns:xlink="http://www.w3.org/1999/xlink" x="0px" y="0px"
	 width="155.468px" height="30px" viewBox="0 0 155.468 30" enable-background="new 0 0 155.468 30" xml:space="preserve">
<g>
	<path fill="#FFFFFF" d="M6.396,23.573c-1.304,0-3.645-0.063-6.396-0.063V5.638c1.826,0,4.744-0.104,7.116-0.104
		c4.808,0,6.769,1.647,6.769,4.47c0,1.715-0.964,3.224-2.751,3.913v0.032c1.992,0.553,2.989,2.063,2.989,3.992
		C14.123,20.622,12.272,23.573,6.396,23.573z M6.255,8.627c-0.547,0-1.265,0.031-1.85,0.031v4.263
		c0.514,0.032,1.026,0.032,1.265,0.032c2.095,0,3.511-0.752,3.511-2.301C9.181,9.449,8.492,8.627,6.255,8.627z M5.915,15.704
		c-0.38,0-1.068,0-1.51,0.031v4.57c0.514,0.072,1.201,0.103,1.889,0.103c2.159,0,3.156-0.988,3.156-2.468
		C9.45,16.36,8.145,15.704,5.915,15.704z"/>
	<g>
		<path fill="#FFFFFF" d="M20.652,30c-1.169,0-2.372-0.173-3.369-0.41l0.38-3.852c0.822,0.277,1.96,0.514,3.162,0.514
			c3.091,0,4.807-1.542,4.807-3.749c0-2.813-2.917-3.811-7.178-3.327v-3.505c4.529,0.033,6.768-1.304,6.768-3.675
			c0-1.685-1.202-2.753-3.298-2.753c-1.344,0-2.711,0.413-3.882,1.028l-0.411-3.677c1.614-0.649,3.361-0.997,5.187-0.997
			c4.777,0,7.047,2.514,7.047,5.575c0,2.466-1.55,4.396-3.779,5.393v0.031c2.744,0.586,4.291,2.823,4.291,5.465
			C30.377,26.394,26.939,30,20.652,30z"/>
		<path fill="#FFFFFF" d="M40.167,15.396c-0.411,0-0.957,0-1.51-0.071v8.185h-4.466V0.308c1.889-0.102,3.951-0.133,6.221-0.133
			c5.702,0,8.833,2.641,8.833,7.18C49.246,11.854,45.805,15.396,40.167,15.396z M40.239,3.812c-0.547,0-1.06,0-1.582,0.039v7.733
			c0.45,0.064,0.894,0.104,1.304,0.104c2.752-0.039,4.643-1.55,4.643-4.058C44.604,5.29,43.267,3.812,40.239,3.812z"/>
	</g>
	<g>
		<path fill="#FFFFFF" d="M60.875,23.509c0-1.006,0.033-1.994,0.176-2.887l-0.04-0.04c-0.822,1.921-2.916,3.266-5.462,3.266
			c-3.093,0-4.88-1.755-4.88-4.5c0-4.088,4.056-6.253,9.869-6.253v-0.927c0-1.786-0.862-2.72-3.338-2.72
			c-1.55,0-3.613,0.515-5.052,1.343l-0.379-3.676c1.723-0.625,3.921-1.067,6.119-1.067c5.497,0,7.045,2.23,7.045,5.947v7.108
			c0,1.376,0.033,2.989,0.103,4.405H60.875z M60.537,15.94c-4.643,0-5.677,1.345-5.677,2.721c0,1.099,0.76,1.819,2.03,1.819
			c2.167,0,3.646-2.064,3.646-4.12V15.94z"/>
		<path fill="#FFFFFF" d="M78.882,10.383c-3.165-0.657-4.746,1.406-4.746,6.143v6.983H69.74V6.428h4.16
			c0,0.854-0.108,2.229-0.314,3.431h0.075c0.823-2.157,2.47-4.055,5.426-3.81L78.882,10.383z"/>
	</g>
	<g>
		<path fill="#FFFFFF" d="M88.256,23.849c-3.781,0-4.949-1.375-4.949-5.361V9.829h-2.958v-3.4h2.925V1.169L87.67,0v6.428h4.157v3.4
			H87.67v7.489c0,2.198,0.521,2.823,2.025,2.823c0.725,0,1.517-0.104,2.132-0.278v3.542C90.723,23.675,89.458,23.849,88.256,23.849z
			"/>
		<path fill="#FFFFFF" d="M105.887,23.509V12.58c0-1.788-0.488-2.854-2.101-2.854c-2.231,0-3.987,2.546-3.987,5.535v8.249h-4.397
			V6.428h4.16c0,0.791-0.062,2.127-0.237,3.021l0.033,0.04c1.027-2.032,3.019-3.439,5.805-3.439c3.841,0,5.09,2.474,5.09,5.463
			v11.997H105.887z"/>
		<path fill="#FFFFFF" d="M128.868,15.671h-10.58c-0.03,3.195,1.548,4.737,4.711,4.737c1.68,0,3.512-0.372,4.982-1.06l0.41,3.4
			c-1.818,0.719-3.984,1.1-6.119,1.1c-5.423,0-8.445-2.713-8.445-8.73c0-5.217,2.879-9.069,8.002-9.069
			c4.982,0,7.181,3.4,7.181,7.63C129.009,14.265,128.977,14.945,128.868,15.671z M121.689,9.276c-1.819,0-3.087,1.343-3.323,3.406
			h6.28C124.723,10.547,123.552,9.276,121.689,9.276z"/>
		<path fill="#FFFFFF" d="M141.834,10.383c-3.162-0.657-4.744,1.406-4.744,6.143v6.983h-4.396V6.428h4.16
			c0,0.854-0.112,2.229-0.318,3.431h0.064c0.822-2.157,2.483-4.055,5.439-3.81L141.834,10.383z"/>
		<path fill="#FFFFFF" d="M147.845,23.849c-1.237,0-2.485-0.135-3.573-0.309l0.093-3.606c1.077,0.27,2.373,0.515,3.686,0.515
			c1.675,0,2.782-0.688,2.782-1.827c0-3.021-6.909-1.304-6.909-7.109c0-2.99,2.45-5.463,7.257-5.463
			c0.996,0,2.088,0.134,3.116,0.309l-0.126,3.471c-0.966-0.277-2.102-0.451-3.164-0.451c-1.725,0-2.544,0.688-2.544,1.756
			c0,2.783,7.006,1.549,7.006,7.078C155.468,21.58,152.509,23.849,147.845,23.849z"/>
	</g>
</g>
</svg>
