<svg width="62" height="35" viewBox="0 0 62 35" xmlns="http://www.w3.org/2000/svg" xmlns:sketch="http://www.bohemiancoding.com/sketch/ns"><title>Fill 5</title><desc>Created with Sketch.</desc><path d="M61.525 16.886l-18.404-16.175c-.222-.197-.533-.255-.811-.155-.279.102-.482.346-.53.641l-1.329 7.943h-34.175c-.4 0-.739.291-.807.688l-.453 2.714c-.041.241.025.485.181.67.156.187.385.293.624.293h15.45l-.328 2.253h-19.485c-.398 0-.739.291-.807.688l-.39 2.341c-.04.24.025.484.181.671.157.185.384.292.624.292h23.654l-.327 2.253h-14.708c-.398 0-.739.291-.806.688l-.372 2.225c-.04.24.026.485.181.671.156.185.385.292.624.292h28.338l-1.281 7.668c-.055.325.087.652.361.831.136.088.29.132.444.132.159 0 .318-.047.457-.141l23.813-16.174c.212-.144.343-.379.36-.635.017-.257-.087-.507-.279-.675" sketch:type="MSShapeGroup" fill="#EC1D25"/></svg>