<svg xmlns:sketch="http://www.bohemiancoding.com/sketch/ns" xmlns="http://www.w3.org/2000/svg" width="346" height="69" viewBox="0 0 346 69"><title>Imported Layers</title><desc>Created with Sketch.</desc><g sketch:type="MSLayerGroup"><g enable-background="new" fill="#D9222A"><path d="M34.303 34.45c-1.562.609-3.633 1.215-6.211 1.816s-5.148.902-7.711.902c-5.938 0-10.586-1.613-13.945-4.84s-5.039-7.684-5.039-13.371c0-5.422 1.695-9.793 5.086-13.113s8.117-4.98 14.18-4.98c2.297 0 4.484.207 6.562.621s4.391 1.238 6.938 2.473v8.18h-1.008c-.438-.328-1.078-.793-1.922-1.395s-1.656-1.113-2.438-1.535c-.906-.5-1.965-.93-3.176-1.289s-2.496-.539-3.855-.539c-1.594 0-3.039.234-4.336.703s-2.461 1.188-3.492 2.156c-.984.938-1.762 2.129-2.332 3.574s-.855 3.113-.855 5.004c0 3.859 1.023 6.812 3.07 8.859s5.07 3.07 9.07 3.07c.344 0 .723-.008 1.137-.023s.793-.039 1.137-.07v-6.843h-6.961v-6.586h16.102v17.226zM67.818 24.841h-19.312c.125 2.062.91 3.641 2.355 4.734s3.574 1.641 6.387 1.641c1.781 0 3.508-.32 5.18-.961s2.992-1.328 3.961-2.062h.938v6.773c-1.906.766-3.703 1.32-5.391 1.664s-3.555.516-5.602.516c-5.281 0-9.328-1.188-12.141-3.562s-4.219-5.758-4.219-10.148c0-4.344 1.332-7.785 3.996-10.324s6.316-3.809 10.957-3.809c4.281 0 7.5 1.082 9.656 3.246s3.234 5.277 3.234 9.34v2.952zm-8.39-4.945c-.047-1.766-.484-3.094-1.312-3.984s-2.117-1.336-3.867-1.336c-1.625 0-2.961.422-4.008 1.266s-1.633 2.195-1.758 4.055h10.945z"/></g><path fill="#D9222A" d="M138.357 25.755c0 1.688-.34 3.195-1.02 4.523s-1.613 2.43-2.801 3.305c-1.375 1.031-2.887 1.766-4.535 2.203s-3.738.656-6.27.656h-15.234v-34.898h13.547c2.812 0 4.871.094 6.176.281s2.598.602 3.879 1.242c1.328.672 2.316 1.574 2.965 2.707s.973 2.426.973 3.879c0 1.688-.445 3.176-1.336 4.465s-2.148 2.293-3.773 3.012v.188c2.281.453 4.09 1.391 5.426 2.812s2.003 3.297 2.003 5.625zm-11.531-14.344c0-.578-.145-1.156-.434-1.734s-.801-1.008-1.535-1.289c-.656-.25-1.473-.387-2.449-.41s-2.348-.035-4.113-.035h-.844v7.383h1.406c1.422 0 2.633-.023 3.633-.07s1.789-.203 2.367-.469c.812-.359 1.344-.824 1.594-1.395s.375-1.231.375-1.981zm2.18 14.203c0-1.109-.215-1.965-.644-2.566s-1.157-1.051-2.187-1.348c-.702-.203-1.668-.312-2.9-.328s-2.519-.023-3.859-.023h-1.965v8.695h.655c2.526 0 4.335-.008 5.426-.023 1.092-.016 2.098-.219 3.018-.609.936-.391 1.579-.91 1.93-1.559.351-.649.526-1.395.526-2.239zM162.26 18.161h-.748c-.359-.125-.936-.219-1.731-.281s-1.458-.094-1.988-.094c-1.2 0-2.261.078-3.181.234s-1.91.422-2.97.797v17.625h-8.461v-26.32h8.461v3.867c1.855-1.594 3.469-2.652 4.841-3.176 1.372-.523 2.635-.785 3.789-.785.296 0 .631.008 1.005.023.375.016.702.039.982.07v8.04z" enable-background="new"/><g enable-background="new" fill="#D9222A"><path d="M183.004 33.653c-.453.344-1.016.758-1.688 1.242s-1.305.867-1.898 1.148c-.828.375-1.688.652-2.578.832s-1.867.27-2.93.27c-2.5 0-4.594-.773-6.281-2.32s-2.531-3.523-2.531-5.93c0-1.922.43-3.492 1.289-4.711s2.078-2.18 3.656-2.883c1.562-.703 3.5-1.203 5.812-1.5s4.711-.516 7.195-.656v-.141c0-1.453-.594-2.457-1.781-3.012s-2.938-.832-5.25-.832c-1.391 0-2.875.246-4.453.738s-2.711.871-3.398 1.137h-.773v-6.352c.891-.234 2.34-.512 4.348-.832s4.02-.48 6.035-.48c4.797 0 8.262.738 10.395 2.215s3.199 3.793 3.199 6.949v17.906h-8.367v-2.788zm0-4.095v-5.467c-1.141.094-2.375.223-3.703.386s-2.336.354-3.023.572c-.844.265-1.488.65-1.934 1.156-.445.507-.668 1.172-.668 1.997 0 .546.047.989.141 1.332s.328.67.703.981c.359.312.789.541 1.289.689.5.147 1.281.222 2.344.222.844 0 1.699-.171 2.566-.514s1.629-.794 2.285-1.354zM226.598 22.919c0 4.141-1.144 7.516-3.43 10.125s-5.139 3.914-8.556 3.914c-1.467 0-2.755-.156-3.862-.469-1.108-.312-2.162-.766-3.16-1.359l-.353 1.312h-8.108v-36.468h8.461v12.891c1.295-1.031 2.617-1.867 3.968-2.508 1.35-.641 2.906-.961 4.67-.961 3.323 0 5.884 1.199 7.679 3.598 1.793 2.398 2.691 5.706 2.691 9.925zm-8.696.176c0-2.34-.397-4.142-1.193-5.405-.795-1.264-2.213-1.896-4.255-1.896-.796 0-1.614.121-2.456.363-.842.241-1.645.589-2.408 1.041v13.198c.607.219 1.185.366 1.73.444.545.078 1.2.117 1.965.117 2.229 0 3.889-.655 4.98-1.966 1.091-1.308 1.637-3.274 1.637-5.896zM248.629 33.653c-.453.344-1.016.758-1.688 1.242s-1.305.867-1.898 1.148c-.828.375-1.688.652-2.578.832s-1.867.27-2.93.27c-2.5 0-4.594-.773-6.281-2.32s-2.531-3.523-2.531-5.93c0-1.922.43-3.492 1.289-4.711s2.078-2.18 3.656-2.883c1.562-.703 3.5-1.203 5.812-1.5s4.711-.516 7.195-.656v-.141c0-1.453-.594-2.457-1.781-3.012s-2.938-.832-5.25-.832c-1.391 0-2.875.246-4.453.738s-2.711.871-3.398 1.137h-.773v-6.352c.891-.234 2.34-.512 4.348-.832s4.02-.48 6.035-.48c4.797 0 8.262.738 10.395 2.215s3.199 3.793 3.199 6.949v17.906h-8.367v-2.788zm0-4.095v-5.467c-1.141.094-2.375.223-3.703.386s-2.336.354-3.023.572c-.844.265-1.488.65-1.934 1.156-.445.507-.668 1.172-.668 1.997 0 .546.047.989.141 1.332s.328.67.703.981c.359.312.789.541 1.289.689.5.147 1.281.222 2.344.222.844 0 1.699-.171 2.566-.514s1.629-.794 2.285-1.354zM291.191 36.442h-8.461v-13.054c0-1.062-.055-2.121-.164-3.176s-.297-1.832-.562-2.332c-.312-.578-.77-1-1.371-1.266s-1.441-.398-2.52-.398c-.766 0-1.543.125-2.332.375s-1.645.648-2.566 1.195v18.656h-8.461v-26.32h8.461v2.906c1.498-1.172 2.938-2.07 4.318-2.695s2.914-.938 4.6-.938c2.84 0 5.06.828 6.659 2.484s2.399 4.133 2.399 7.43v17.133zM315.777 36.211c-.906.233-1.867.416-2.883.549-1.016.132-2.258.198-3.727.198-3.281 0-5.723-.664-7.324-1.992s-2.402-3.602-2.402-6.82v-12.305h-3.469v-5.719h3.469v-7.523h8.461v7.523h7.875v5.719h-7.875v9.343c0 .923.008 1.729.023 2.417s.141 1.307.374 1.854c.218.548.604.982 1.156 1.303.554.321 1.359.481 2.419.481.436 0 1.008-.094 1.717-.281s1.204-.359 1.484-.516h.701v5.769z"/></g><g enable-background="new" fill="#D9222A"><path d="M118.92 57.218c0 .141-.013.331-.04.571s-.063.451-.11.633l-1.476 6.372h-1.647l1.288-5.59c.07-.311.125-.581.163-.812.038-.231.057-.462.057-.69 0-.492-.122-.862-.366-1.112-.244-.248-.683-.373-1.317-.373-.446 0-.938.123-1.476.369s-1.062.541-1.572.884l-1.688 7.325h-1.651l3.152-13.676h1.65l-1.141 4.95c.627-.44 1.215-.778 1.763-1.013.548-.234 1.113-.352 1.693-.352.856 0 1.523.215 2 .646.479.43.718 1.053.718 1.868zM125.157 65.022c-1.358 0-2.423-.319-3.196-.958-.772-.639-1.159-1.573-1.159-2.804 0-1.799.568-3.341 1.704-4.627s2.541-1.93 4.215-1.93c1.112 0 1.964.277 2.555.83.591.555.887 1.332.887 2.334 0 .176-.025.454-.075.835s-.13.823-.242 1.327h-7.233c-.035.17-.06.337-.075.501l-.022.457c0 .826.252 1.476.756 1.946.504.473 1.219.708 2.145.708.645 0 1.308-.126 1.991-.378s1.255-.536 1.718-.853h.097l-.36 1.784-.791.29c-.234.088-.532.176-.896.264-.363.088-.685.155-.966.202-.281.049-.632.072-1.053.072zm3.3-6.205l.062-.431.018-.387c0-.627-.171-1.116-.514-1.468s-.892-.527-1.648-.527c-.832 0-1.57.258-2.215.773s-1.081 1.195-1.31 2.039h5.607zm1.538-8.754l-3.12 3.287h-1.371l2.232-3.287h2.259zM138.635 54.977l-.299 1.336h-3.412l-1.051 4.532c-.059.229-.111.491-.158.787-.047.297-.07.532-.07.708 0 .429.108.747.325.955s.618.312 1.203.312c.24 0 .525-.041.856-.123.331-.082.555-.146.672-.193h.088l-.308 1.417c-.328.081-.678.148-1.05.2-.372.053-.702.079-.989.079-.809 0-1.434-.178-1.876-.531-.442-.354-.664-.916-.664-1.684 0-.188.013-.373.04-.559.026-.184.063-.394.11-.628l1.221-5.273h-1.115l.301-1.336h1.124l.653-2.821h1.66l-.659 2.821h3.398z"/></g><g enable-background="new" fill="#D9222A"><path d="M157.003 58.448c0 .879-.135 1.723-.404 2.531s-.65 1.512-1.143 2.109c-.51.621-1.099 1.106-1.767 1.455-.668.348-1.447.522-2.338.522-1.166 0-2.076-.332-2.729-.997s-.98-1.584-.98-2.756c0-.879.133-1.717.4-2.514s.652-1.506 1.156-2.127c.486-.598 1.083-1.075 1.789-1.433s1.478-.536 2.316-.536c1.131 0 2.03.322 2.698.967s1.002 1.572 1.002 2.779zm-2.689 3.709c.316-.469.558-1.011.725-1.626s.25-1.266.25-1.951c0-.82-.196-1.441-.589-1.863s-.946-.633-1.661-.633c-.568 0-1.078.136-1.529.409-.451.271-.841.646-1.169 1.12-.316.463-.56 1.005-.729 1.626s-.255 1.266-.255 1.934c0 .809.196 1.43.589 1.863s.949.65 1.67.65c.562 0 1.072-.135 1.529-.404s.847-.644 1.169-1.125zM168.149 57.218c0 .141-.013.331-.04.571s-.062.451-.109.633l-1.471 6.372h-1.646l1.284-5.59c.07-.311.124-.581.162-.812.038-.231.057-.462.057-.69 0-.492-.122-.862-.365-1.112-.244-.248-.683-.373-1.316-.373-.446 0-.938.123-1.475.369s-1.061.54-1.572.882l-1.692 7.327h-1.651l2.268-9.817h1.65l-.251 1.089c.627-.438 1.214-.775 1.762-1.01.548-.234 1.112-.352 1.691-.352.855 0 1.522.215 1.999.646.476.429.715 1.052.715 1.867zM174.57 51.118l-3.162 13.676h-1.651l3.161-13.676h1.652zM178.651 54.977l-2.267 9.817h-1.651l2.268-9.817h1.65zm.899-3.358l-.397 1.714h-1.87l.397-1.714h1.87zM189.526 57.218c0 .141-.013.331-.04.571-.025.24-.062.451-.109.633l-1.471 6.372h-1.646l1.284-5.59c.069-.311.124-.581.161-.812.038-.231.057-.462.057-.69 0-.492-.121-.862-.365-1.112-.243-.248-.682-.373-1.316-.373-.445 0-.938.123-1.475.369s-1.061.54-1.571.882l-1.692 7.327h-1.65l2.268-9.817h1.65l-.252 1.089c.627-.438 1.215-.775 1.762-1.01.549-.234 1.112-.352 1.691-.352.855 0 1.522.215 2 .646.475.429.714 1.052.714 1.867zM195.764 65.022c-1.359 0-2.424-.319-3.197-.958-.771-.639-1.158-1.573-1.158-2.804 0-1.799.568-3.341 1.703-4.627 1.137-1.286 2.541-1.93 4.215-1.93 1.112 0 1.965.277 2.556.83.591.555.887 1.332.887 2.334 0 .176-.024.454-.075.835-.049.381-.13.823-.241 1.327h-7.233c-.035.17-.061.337-.074.501l-.022.457c0 .826.252 1.476.756 1.946.504.473 1.219.708 2.145.708.645 0 1.308-.126 1.991-.378.682-.252 1.255-.536 1.718-.853h.097l-.359 1.784-.791.29s-.532.176-.896.264c-.362.088-.685.155-.966.202s-.635.072-1.056.072zm3.299-6.205l.062-.431.018-.387c0-.627-.172-1.116-.514-1.468-.344-.352-.893-.527-1.648-.527-.832 0-1.57.258-2.215.773s-1.081 1.195-1.31 2.039h5.607z"/></g><g enable-background="new" fill="#D9222A"><path d="M221.791 64.794h-2.001l-3.144-4.318-1.42 1.152-.723 3.166h-1.668l3.16-13.676h1.67l-2.029 8.778 5.744-4.92h2.178l-5.602 4.641 3.835 5.177zM229.606 63.748l-.646.4c-.273.173-.55.32-.831.443-.299.135-.633.247-1.002.339-.369.09-.794.136-1.274.136-.779 0-1.412-.228-1.898-.681-.486-.454-.73-1.048-.73-1.78 0-.779.172-1.437.515-1.974.343-.535.851-.974 1.524-1.313.662-.334 1.461-.575 2.395-.726.936-.148 2-.241 3.195-.276l.092-.426c.024-.119.037-.244.037-.373 0-.281-.057-.51-.168-.686-.111-.177-.27-.317-.475-.423s-.444-.177-.717-.215c-.273-.038-.573-.058-.902-.058-.498 0-1.066.081-1.706.241-.64.162-1.158.321-1.558.479h-.088l.326-1.652c.334-.088.822-.188 1.467-.299s1.264-.167 1.855-.167c1.219 0 2.133.19 2.742.571s.914.984.914 1.811c0 .158-.014.327-.04.505l-.092.506-1.534 6.662h-1.64l.239-1.044zm.959-4.131c-.902.035-1.704.104-2.404.206-.7.104-1.279.251-1.736.444-.475.193-.835.456-1.081.786-.246.332-.369.743-.369 1.235 0 .422.143.744.43.967s.732.334 1.335.334c.533 0 1.076-.118 1.63-.356.553-.237 1.07-.523 1.55-.857l.645-2.759zM240.453 63.748l-.646.4s-.549.32-.83.443c-.299.135-.633.247-1.002.339-.369.09-.795.136-1.275.136-.779 0-1.412-.228-1.898-.681-.486-.454-.729-1.048-.729-1.78 0-.779.171-1.437.515-1.974.342-.535.851-.974 1.523-1.313.662-.334 1.461-.575 2.396-.726.935-.148 1.999-.241 3.194-.276l.092-.426c.025-.119.037-.244.037-.373 0-.281-.056-.51-.167-.686-.112-.177-.271-.317-.476-.423s-.443-.177-.717-.215c-.272-.038-.572-.058-.901-.058-.499 0-1.067.081-1.706.241-.64.162-1.158.321-1.558.479h-.088l.325-1.652c.334-.088.823-.188 1.468-.299s1.263-.167 1.854-.167c1.219 0 2.133.19 2.742.571s.914.984.914 1.811c0 .158-.014.327-.039.505l-.092.506-1.535 6.662h-1.639l.238-1.044zm.959-4.131c-.902.035-1.705.104-2.404.206-.701.104-1.279.251-1.736.444-.475.193-.836.456-1.082.786-.246.332-.369.743-.369 1.235 0 .422.144.744.43.967.287.223.732.334 1.336.334.533 0 1.076-.118 1.629-.356.553-.237 1.07-.523 1.551-.857l.645-2.759zM252.996 56.717h-.088c-.234-.059-.452-.101-.654-.128-.201-.025-.445-.039-.732-.039-.551 0-1.096.125-1.637.373-.541.25-1.061.549-1.559.897l-1.591 6.974h-1.668l2.24-9.817h1.668l-.331 1.45c.779-.545 1.439-.923 1.982-1.134.541-.211 1.062-.316 1.56-.316.287 0 .495.008.624.022l.562.083-.376 1.635zM260.15 54.977l-.299 1.336h-3.412l-1.051 4.532c-.059.229-.111.491-.158.787-.047.297-.07.532-.07.708 0 .429.109.747.326.955s.617.312 1.203.312c.239 0 .525-.041.855-.123.331-.082.555-.146.672-.193h.088l-.308 1.417c-.328.081-.679.148-1.05.2-.373.053-.702.079-.989.079-.809 0-1.435-.178-1.876-.531-.443-.354-.664-.916-.664-1.684 0-.188.014-.373.039-.559l.11-.628 1.221-5.273h-1.115l.301-1.336h1.124l.652-2.821h1.66l-.658 2.821h3.399zM264.559 65.022c-1.357 0-2.423-.319-3.195-.958-.773-.639-1.159-1.573-1.159-2.804 0-1.799.567-3.341 1.704-4.627 1.135-1.286 2.54-1.93 4.215-1.93 1.111 0 1.963.277 2.555.83.591.555.887 1.332.887 2.334 0 .176-.025.454-.074.835-.051.381-.131.823-.242 1.327h-7.233c-.035.17-.06.337-.075.501l-.021.457c0 .826.252 1.476.756 1.946.504.473 1.219.708 2.145.708.645 0 1.309-.126 1.99-.378.684-.252 1.256-.536 1.719-.853h.097l-.36 1.784-.79.29c-.233.088-.532.176-.896.264s-.685.155-.966.202c-.284.049-.636.072-1.057.072zm3.3-6.205l.062-.431.018-.387c0-.627-.171-1.116-.515-1.468-.342-.352-.892-.527-1.647-.527-.832 0-1.57.258-2.215.773s-1.081 1.195-1.31 2.039h5.607zM280.508 57.218c0 .141-.014.331-.04.571s-.062.451-.109.633l-1.472 6.372h-1.646l1.285-5.59c.069-.311.123-.581.161-.812s.057-.462.057-.69c0-.492-.122-.862-.365-1.112-.243-.248-.683-.373-1.316-.373-.446 0-.938.123-1.475.369s-1.062.54-1.571.882l-1.692 7.327h-1.651l2.268-9.817h1.65l-.251 1.089c.627-.438 1.214-.775 1.762-1.01s1.112-.352 1.691-.352c.855 0 1.522.215 1.999.646.476.429.715 1.052.715 1.867zM292.074 58.079c0 .973-.15 1.887-.452 2.742s-.701 1.582-1.199 2.18c-.503.615-1.089 1.101-1.757 1.455-.668.354-1.38.531-2.135.531-.527 0-1.012-.061-1.455-.18-.441-.12-.844-.295-1.207-.522l-.954 4.13h-1.651l3.104-13.438h1.65l-.237 1.028c.545-.381 1.081-.692 1.608-.936s1.11-.365 1.749-.365c.955 0 1.684.296 2.185.888s.751 1.421.751 2.487zm-1.73.317c0-.697-.152-1.234-.457-1.613-.305-.377-.791-.566-1.457-.566-.486 0-.99.12-1.512.36-.521.24-1.006.512-1.457.815l-1.285 5.565c.381.205.744.357 1.089.457.346.1.765.149 1.257.149.604 0 1.146-.146 1.629-.439.484-.293.884-.674 1.2-1.143.333-.492.583-1.04.747-1.644s.246-1.25.246-1.941zM303 58.448c0 .879-.135 1.723-.404 2.531s-.65 1.512-1.143 2.109c-.51.621-1.098 1.106-1.766 1.455-.668.348-1.447.522-2.338.522-1.166 0-2.076-.332-2.729-.997s-.979-1.584-.979-2.756c0-.879.133-1.717.399-2.514s.651-1.506 1.155-2.127c.486-.598 1.083-1.075 1.789-1.433s1.479-.536 2.316-.536c1.131 0 2.029.322 2.697.967s1.003 1.572 1.003 2.779zm-2.689 3.709c.316-.469.559-1.011.726-1.626s.251-1.266.251-1.951c0-.82-.197-1.441-.59-1.863s-.945-.633-1.66-.633c-.568 0-1.078.136-1.529.409-.451.271-.842.646-1.17 1.12-.316.463-.559 1.005-.729 1.626s-.256 1.266-.256 1.934c0 .809.197 1.43.59 1.863s.949.65 1.67.65c.562 0 1.072-.135 1.529-.404s.845-.644 1.168-1.125zM312.239 56.717h-.088c-.233-.059-.452-.101-.653-.128-.202-.025-.446-.039-.733-.039-.55 0-1.095.125-1.637.373-.541.25-1.061.549-1.558.897l-1.592 6.974h-1.668l2.24-9.817h1.668l-.33 1.45c.779-.545 1.439-.923 1.981-1.134s1.062-.316 1.56-.316c.287 0 .496.008.625.022l.562.083-.377 1.635zM319.394 54.977l-.299 1.336h-3.411l-1.051 4.532c-.059.229-.111.491-.158.787-.047.297-.07.532-.07.708 0 .429.107.747.324.955s.618.312 1.203.312c.24 0 .525-.041.856-.123s.555-.146.672-.193h.088l-.308 1.417c-.328.081-.678.148-1.051.2-.371.053-.701.079-.988.079-.809 0-1.434-.178-1.877-.531-.441-.354-.663-.916-.663-1.684 0-.188.013-.373.04-.559.025-.184.062-.394.109-.628l1.221-5.273h-1.115l.301-1.336h1.123l.654-2.821h1.659l-.659 2.821h3.4zM325.389 63.748l-.646.4s-.55.32-.831.443c-.299.135-.633.247-1.002.339-.369.09-.794.136-1.274.136-.779 0-1.412-.228-1.898-.681-.486-.454-.729-1.048-.729-1.78 0-.779.172-1.437.514-1.974.344-.535.852-.974 1.525-1.313.662-.334 1.46-.575 2.395-.726.935-.148 1.999-.241 3.194-.276l.093-.426c.023-.119.036-.244.036-.373 0-.281-.056-.51-.167-.686-.111-.177-.27-.317-.475-.423s-.445-.177-.717-.215c-.273-.038-.574-.058-.902-.058-.498 0-1.067.081-1.707.241-.639.162-1.158.321-1.557.479h-.088l.325-1.652c.334-.088.823-.188 1.468-.299s1.263-.167 1.854-.167c1.219 0 2.133.19 2.742.571s.914.984.914 1.811c0 .158-.013.327-.04.505l-.092.506-1.534 6.662h-1.64l.239-1.044zm.959-4.131c-.902.035-1.703.104-2.404.206-.699.104-1.279.251-1.736.444-.475.193-.835.456-1.081.786-.246.332-.369.743-.369 1.235 0 .422.144.744.431.967s.731.334 1.334.334c.533 0 1.076-.118 1.63-.356.554-.237 1.07-.523 1.55-.857l.645-2.759zM336.236 63.748l-.646.4s-.549.32-.83.443c-.299.135-.633.247-1.002.339-.369.09-.795.136-1.275.136-.779 0-1.412-.228-1.898-.681-.486-.454-.729-1.048-.729-1.78 0-.779.171-1.437.515-1.974.342-.535.851-.974 1.523-1.313.662-.334 1.461-.575 2.396-.726.935-.148 1.999-.241 3.194-.276l.092-.426c.025-.119.037-.244.037-.373 0-.281-.056-.51-.167-.686-.112-.177-.271-.317-.476-.423s-.443-.177-.717-.215c-.272-.038-.572-.058-.901-.058-.499 0-1.067.081-1.706.241-.64.162-1.158.321-1.558.479h-.088l.325-1.652c.334-.088.823-.188 1.468-.299s1.263-.167 1.854-.167c1.219 0 2.133.19 2.742.571s.914.984.914 1.811c0 .158-.014.327-.039.505l-.092.506-1.535 6.662h-1.639l.238-1.044zm.959-4.131c-.902.035-1.705.104-2.404.206-.701.104-1.279.251-1.736.444-.475.193-.836.456-1.082.786-.246.332-.369.743-.369 1.235 0 .422.144.744.43.967.287.223.732.334 1.336.334.533 0 1.076-.118 1.629-.356.553-.237 1.07-.523 1.551-.857l.645-2.759zM345.68 51.118l-3.161 13.676h-1.651l3.162-13.676h1.65z"/></g><path sketch:type="MSShapeGroup" fill="#D9222A" d="M98.61 13.35c-2.52-2.61-5.96-3.92-10.35-3.92s-7.84 1.31-10.34 3.92c-2.5 2.62-4.3 6.17-4.3 10.67 0 12.08 14.5 33.77 14.5 33.77s14.81-23.07 14.81-33.77c0-4.5-1.81-8.05-4.32-10.67zm-10.61 14.99c-2.2 0-3.99-1.83-3.99-4.09 0-2.25 1.79-4.08 3.99-4.08 2.21 0 3.99 1.83 3.99 4.08 0 2.26-1.78 4.09-3.99 4.09z"/></g></svg>