<svg xmlns:sketch="http://www.bohemiancoding.com/sketch/ns" xmlns="http://www.w3.org/2000/svg" width="350" height="69" viewBox="-2 0 350 69" enable-background="new -2 0 350 69"><title>Imported Layers</title><desc>Created with Sketch.</desc><g sketch:type="MSLayerGroup" fill="#D9222A"><path d="M31.906 34.45c-1.562.608-3.633 1.215-6.211 1.815-2.578.602-5.148.902-7.711.902-5.938 0-10.586-1.613-13.945-4.84-3.359-3.226-5.039-7.683-5.039-13.37 0-5.422 1.695-9.793 5.086-13.113 3.391-3.32 8.117-4.979 14.18-4.979 2.297 0 4.484.207 6.562.621s4.391 1.238 6.938 2.473v8.18h-1.008c-.438-.328-1.078-.793-1.922-1.395-.844-.602-1.656-1.113-2.438-1.535-.906-.5-1.965-.93-3.176-1.289s-2.496-.54-3.855-.54c-1.594 0-3.039.234-4.336.703-1.297.469-2.461 1.188-3.492 2.156-.984.938-1.762 2.129-2.332 3.574s-.855 3.113-.855 5.004c0 3.859 1.023 6.812 3.07 8.859 2.047 2.047 5.07 3.07 9.07 3.07.344 0 .723-.008 1.137-.023.414-.015.793-.039 1.137-.07v-6.843h-6.961v-6.586h16.102l-.001 17.226zm33.515-9.609h-19.312c.125 2.062.91 3.641 2.355 4.734 1.445 1.093 3.574 1.641 6.387 1.641 1.781 0 3.508-.32 5.18-.961 1.672-.641 2.992-1.328 3.961-2.062h.938v6.773c-1.906.767-3.703 1.32-5.391 1.664-1.688.345-3.555.517-5.602.517-5.281 0-9.328-1.188-12.141-3.562s-4.219-5.758-4.219-10.148c0-4.344 1.332-7.785 3.996-10.324 2.664-2.539 6.316-3.809 10.957-3.809 4.281 0 7.5 1.082 9.656 3.246 2.156 2.164 3.234 5.277 3.234 9.34l.001 2.951zm-8.39-4.945c-.047-1.766-.484-3.094-1.312-3.984-.828-.89-2.117-1.336-3.867-1.336-1.625 0-2.961.422-4.008 1.266-1.047.844-1.633 2.195-1.758 4.055l10.945-.001zm78.929 5.859c0 1.688-.34 3.195-1.02 4.523-.68 1.328-1.613 2.43-2.801 3.305-1.375 1.031-2.887 1.767-4.535 2.203s-3.738.655-6.27.655h-15.234v-34.897h13.547c2.812 0 4.871.094 6.176.281 1.305.187 2.598.602 3.879 1.242 1.328.672 2.316 1.574 2.965 2.707.649 1.133.973 2.426.973 3.879 0 1.688-.445 3.176-1.336 4.465-.891 1.289-2.148 2.293-3.773 3.012v.188c2.281.453 4.09 1.391 5.426 2.812s2.003 3.297 2.003 5.625zm-11.531-14.344c0-.578-.145-1.156-.434-1.734-.289-.578-.801-1.008-1.535-1.289-.656-.25-1.473-.387-2.449-.41-.976-.023-2.348-.035-4.113-.035h-.844v7.383h1.406c1.422 0 2.633-.023 3.633-.07s1.789-.203 2.367-.469c.812-.359 1.344-.824 1.594-1.395.25-.571.375-1.231.375-1.981zm2.18 14.203c0-1.109-.215-1.965-.644-2.566-.429-.601-1.157-1.051-2.187-1.348-.702-.203-1.668-.312-2.9-.328s-2.519-.023-3.859-.023h-1.965v8.695h.655c2.526 0 4.335-.008 5.426-.023 1.092-.016 2.098-.219 3.018-.609.936-.391 1.579-.91 1.93-1.559s.526-1.395.526-2.239zm33.254-7.453h-.748c-.359-.125-.936-.219-1.731-.281-.795-.062-1.458-.094-1.988-.094-1.2 0-2.261.078-3.181.234-.92.156-1.91.422-2.97.797v17.625h-8.461v-26.32h8.461v3.867c1.855-1.594 3.469-2.652 4.841-3.176 1.372-.523 2.635-.785 3.789-.785.296 0 .631.008 1.005.023.375.016.702.039.982.07l.001 8.04zm20.744 15.492c-.453.344-1.016.758-1.688 1.242s-1.305.867-1.898 1.148c-.828.375-1.688.652-2.578.832s-1.868.27-2.93.27c-2.5 0-4.594-.772-6.281-2.319-1.687-1.547-2.531-3.523-2.531-5.93 0-1.922.43-3.492 1.289-4.711.859-1.219 2.078-2.18 3.656-2.883 1.562-.703 3.5-1.203 5.812-1.5 2.311-.297 4.711-.516 7.194-.656v-.141c0-1.453-.594-2.457-1.779-3.012-1.188-.555-2.939-.832-5.25-.832-1.392 0-2.876.246-4.454.738-1.578.492-2.711.871-3.398 1.137h-.773v-6.352c.891-.234 2.34-.512 4.348-.832 2.008-.32 4.021-.48 6.035-.48 4.797 0 8.262.738 10.395 2.215 2.135 1.477 3.199 3.793 3.199 6.949v17.906h-8.367v-2.789h-.001zm0-4.095v-5.467c-1.141.094-2.375.223-3.703.386s-2.336.354-3.023.572c-.844.265-1.488.65-1.934 1.156-.445.507-.668 1.172-.668 1.997 0 .546.047.989.141 1.332.095.343.328.67.703.981.359.312.789.541 1.289.689.5.147 1.282.222 2.344.222.844 0 1.699-.171 2.566-.514.867-.343 1.629-.794 2.285-1.354zm43.594-6.639c0 4.141-1.145 7.516-3.43 10.125-2.287 2.608-5.139 3.914-8.557 3.914-1.467 0-2.754-.156-3.861-.469s-2.162-.767-3.16-1.359l-.354 1.312h-8.107v-36.468h8.461v12.891c1.295-1.031 2.617-1.867 3.969-2.508 1.35-.641 2.904-.961 4.67-.961 3.322 0 5.883 1.199 7.678 3.598 1.793 2.398 2.691 5.706 2.691 9.925zm-8.695.176c0-2.34-.398-4.142-1.193-5.405-.795-1.264-2.213-1.896-4.256-1.896-.795 0-1.613.121-2.455.363-.842.241-1.645.589-2.408 1.041v13.198c.607.219 1.186.366 1.73.444.545.078 1.199.117 1.965.117 2.229 0 3.889-.655 4.98-1.966 1.09-1.308 1.637-3.274 1.637-5.896zm30.726 10.558c-.453.344-1.016.758-1.688 1.242s-1.305.867-1.898 1.148c-.828.375-1.688.652-2.578.832s-1.867.27-2.93.27c-2.5 0-4.594-.772-6.281-2.319-1.688-1.547-2.531-3.523-2.531-5.93 0-1.922.43-3.492 1.289-4.711.859-1.219 2.078-2.18 3.656-2.883 1.562-.703 3.5-1.203 5.812-1.5 2.311-.297 4.711-.516 7.193-.656v-.141c0-1.453-.594-2.457-1.779-3.012-1.188-.555-2.939-.832-5.25-.832-1.393 0-2.875.246-4.453.738-1.578.492-2.711.871-3.398 1.137h-.773v-6.352c.891-.234 2.34-.512 4.348-.832s4.021-.48 6.035-.48c4.797 0 8.262.738 10.395 2.215 2.135 1.477 3.199 3.793 3.199 6.949v17.906h-8.367v-2.789h-.001zm0-4.095v-5.467c-1.141.094-2.375.223-3.703.386s-2.336.354-3.023.572c-.844.265-1.488.65-1.934 1.156-.445.507-.668 1.172-.668 1.997 0 .546.047.989.141 1.332.094.343.328.67.703.981.359.312.789.541 1.289.689.5.147 1.281.222 2.344.222.844 0 1.699-.171 2.566-.514.867-.343 1.629-.794 2.285-1.354zm42.563 6.883h-8.461v-13.053c0-1.062-.057-2.121-.164-3.176-.109-1.055-.297-1.832-.562-2.332-.312-.578-.77-1-1.371-1.266-.602-.266-1.441-.398-2.52-.398-.766 0-1.543.125-2.332.375s-1.645.648-2.566 1.195v18.655h-8.461v-26.319h8.461v2.906c1.498-1.172 2.938-2.07 4.318-2.695 1.379-.625 2.914-.938 4.6-.938 2.84 0 5.061.828 6.658 2.484 1.6 1.656 2.4 4.133 2.4 7.43v17.132zm24.586-.23c-.906.232-1.867.416-2.883.549-1.018.133-2.258.198-3.729.198-3.279 0-5.723-.664-7.324-1.992-1.6-1.328-2.4-3.602-2.4-6.82v-12.305h-3.469v-5.719h3.469v-7.523h8.461v7.523h7.875v5.719h-7.875v9.343c0 .923.008 1.729.021 2.417.016.688.143 1.307.375 1.854.219.548.604.982 1.156 1.303.553.321 1.359.481 2.418.481.438 0 1.008-.094 1.717-.281s1.205-.359 1.484-.516h.701v5.769h.003zm-196.858 21.007c0 .142-.013.331-.04.571-.027.24-.063.451-.11.633l-1.476 6.372h-1.647l1.288-5.59c.07-.312.125-.581.163-.812.038-.231.057-.463.057-.69 0-.492-.122-.862-.366-1.112-.244-.248-.683-.373-1.317-.373-.446 0-.938.123-1.476.369s-1.062.541-1.572.884l-1.688 7.325h-1.651l3.152-13.676h1.65l-1.141 4.949c.627-.439 1.215-.777 1.763-1.012.548-.234 1.113-.353 1.693-.353.856 0 1.523.215 2 .646.479.431.718 1.053.718 1.869zm6.237 7.803c-1.358 0-2.423-.318-3.196-.957-.772-.64-1.159-1.573-1.159-2.805 0-1.799.568-3.341 1.704-4.627 1.136-1.285 2.541-1.93 4.215-1.93 1.112 0 1.964.277 2.555.83.591.555.887 1.332.887 2.334 0 .176-.025.453-.075.835-.05.381-.13.823-.242 1.327h-7.233c-.035.17-.06.337-.075.5l-.022.457c0 .826.252 1.477.756 1.947.504.473 1.219.707 2.145.707.645 0 1.308-.125 1.991-.377.683-.253 1.255-.537 1.718-.854h.097l-.36 1.783-.791.291c-.234.088-.532.176-.896.264-.363.088-.685.154-.966.202-.281.051-.632.073-1.053.073zm3.3-6.205l.062-.431.018-.387c0-.627-.171-1.116-.514-1.468-.343-.352-.892-.527-1.648-.527-.832 0-1.57.258-2.215.773-.645.515-1.081 1.195-1.31 2.039h5.607v.001zm1.538-8.754l-3.12 3.287h-1.371l2.232-3.287h2.259zm8.64 4.915l-.299 1.336h-3.412l-1.051 4.532c-.059.229-.111.491-.158.787-.047.298-.07.532-.07.708 0 .43.108.747.325.955.217.208.618.312 1.203.312.24 0 .525-.041.856-.123s.555-.146.672-.193h.088l-.308 1.417c-.328.081-.678.147-1.05.2s-.702.078-.989.078c-.809 0-1.434-.178-1.876-.53-.442-.354-.664-.916-.664-1.685 0-.188.013-.373.04-.559.026-.184.063-.395.11-.628l1.221-5.272h-1.115l.301-1.336h1.124l.653-2.821h1.66l-.659 2.821h3.398v.001zm18.368 3.471c0 .879-.135 1.723-.404 2.53-.269.809-.65 1.513-1.143 2.109-.51.621-1.099 1.105-1.767 1.455-.668.348-1.447.521-2.338.521-1.166 0-2.076-.332-2.729-.996-.653-.666-.98-1.584-.98-2.756 0-.879.133-1.718.4-2.515s.652-1.506 1.156-2.127c.486-.598 1.083-1.075 1.789-1.433.706-.358 1.478-.536 2.316-.536 1.131 0 2.03.321 2.698.967s1.002 1.574 1.002 2.781zm-2.689 3.709c.316-.47.558-1.011.725-1.626s.25-1.266.25-1.951c0-.82-.196-1.441-.589-1.863-.393-.422-.946-.633-1.661-.633-.568 0-1.078.137-1.529.409-.451.271-.841.646-1.169 1.12-.316.463-.56 1.005-.729 1.626-.169.62-.255 1.266-.255 1.934 0 .81.196 1.431.589 1.863.393.433.949.649 1.67.649.562 0 1.072-.135 1.529-.403s.847-.643 1.169-1.125zm13.835-4.939c0 .142-.013.331-.04.571-.027.24-.062.451-.109.633l-1.471 6.372h-1.646l1.284-5.59c.07-.312.124-.581.162-.812.038-.231.057-.463.057-.69 0-.492-.122-.862-.365-1.112-.244-.248-.683-.373-1.316-.373-.446 0-.938.123-1.475.369s-1.061.54-1.572.882l-1.692 7.327h-1.651l2.268-9.816h1.65l-.251 1.088c.627-.438 1.214-.774 1.762-1.01.548-.233 1.112-.352 1.691-.352.855 0 1.522.215 1.999.646.476.429.715 1.051.715 1.867zm6.421-6.1l-3.162 13.676h-1.651l3.161-13.676h1.652zm4.081 3.859l-2.268 9.817h-1.651l2.268-9.817h1.651zm.898-3.358l-.396 1.714h-1.869l.396-1.714h1.869zm9.977 5.599c0 .142-.012.331-.039.571-.025.24-.062.451-.109.633l-1.471 6.372h-1.646l1.283-5.59c.07-.312.125-.581.162-.812.037-.231.057-.463.057-.69 0-.492-.121-.862-.365-1.112-.242-.248-.682-.373-1.316-.373-.443 0-.938.123-1.475.369s-1.061.54-1.57.882l-1.691 7.327h-1.65l2.268-9.816h1.65l-.252 1.088c.627-.438 1.215-.774 1.762-1.01.549-.233 1.111-.352 1.691-.352.854 0 1.521.215 2 .646.473.429.711 1.051.711 1.867zm6.238 7.803c-1.359 0-2.424-.318-3.197-.957-.771-.64-1.158-1.573-1.158-2.805 0-1.799.568-3.341 1.703-4.627 1.137-1.285 2.541-1.93 4.215-1.93 1.113 0 1.965.277 2.557.83.592.555.887 1.332.887 2.334 0 .176-.023.453-.074.835-.049.381-.131.823-.242 1.327h-7.232c-.035.17-.061.337-.074.501l-.021.456c0 .826.252 1.477.756 1.947.504.473 1.219.707 2.145.707.645 0 1.309-.125 1.992-.377.682-.253 1.254-.537 1.717-.854h.098l-.359 1.783-.791.291s-.531.176-.896.264c-.361.088-.684.154-.965.202-.285.049-.639.073-1.061.073zm3.299-6.205l.062-.431.018-.387c0-.627-.172-1.116-.514-1.468-.344-.352-.893-.527-1.648-.527-.832 0-1.57.258-2.215.773-.645.515-1.08 1.195-1.311 2.039h5.608v.001zm22.729 5.978h-2.002l-3.143-4.317-1.42 1.151-.725 3.166h-1.668l3.16-13.676h1.67l-2.029 8.778 5.744-4.92h2.18l-5.604 4.641 3.837 5.177zm7.814-1.046l-.646.4c-.271.172-.549.319-.83.442-.299.136-.633.247-1.002.339-.369.09-.795.137-1.273.137-.779 0-1.412-.229-1.898-.682s-.73-1.048-.73-1.779c0-.779.172-1.438.516-1.975.342-.535.85-.974 1.523-1.312.662-.334 1.461-.575 2.395-.727.938-.148 2-.24 3.195-.275l.092-.426c.025-.119.037-.244.037-.373 0-.281-.057-.511-.168-.687-.111-.177-.27-.317-.475-.423-.205-.106-.443-.178-.717-.215-.273-.039-.574-.059-.902-.059-.498 0-1.066.081-1.705.241-.641.162-1.158.321-1.559.479h-.088l.326-1.652c.334-.088.822-.188 1.467-.299s1.264-.168 1.855-.168c1.219 0 2.133.19 2.742.572.607.381.912.983.912 1.811 0 .158-.014.326-.039.505l-.092.506-1.535 6.662h-1.639l.238-1.042zm.959-4.131c-.902.035-1.703.104-2.404.206-.699.104-1.279.251-1.736.444-.475.192-.834.455-1.08.785-.246.332-.369.743-.369 1.235 0 .422.143.744.43.967.287.224.732.334 1.336.334.533 0 1.076-.118 1.629-.356.553-.236 1.07-.522 1.551-.856l.643-2.759zm9.889 4.131l-.646.4s-.549.319-.83.442c-.299.136-.633.247-1.002.339-.369.09-.795.137-1.275.137-.779 0-1.412-.229-1.896-.682-.486-.453-.73-1.048-.73-1.779 0-.779.172-1.438.516-1.975.342-.535.852-.974 1.523-1.312.662-.334 1.461-.575 2.395-.727.936-.148 2-.24 3.195-.275l.092-.426c.025-.119.037-.244.037-.373 0-.281-.057-.511-.168-.687-.111-.177-.27-.317-.475-.423-.205-.106-.443-.178-.717-.215-.273-.039-.572-.059-.902-.059-.498 0-1.066.081-1.705.241-.641.162-1.158.321-1.559.479h-.088l.324-1.652c.334-.088.824-.188 1.469-.299s1.264-.168 1.854-.168c1.219 0 2.133.19 2.742.572.609.381.914.983.914 1.811 0 .158-.014.326-.039.505l-.092.506-1.535 6.662h-1.639l.237-1.042zm.959-4.131c-.902.035-1.705.104-2.404.206-.701.104-1.279.251-1.736.444-.475.192-.836.455-1.082.785-.246.332-.369.743-.369 1.235 0 .422.145.744.43.967.287.224.732.334 1.336.334.533 0 1.076-.118 1.629-.356.555-.236 1.07-.522 1.553-.856l.643-2.759zm11.584-2.9h-.088c-.234-.059-.453-.101-.654-.128-.201-.024-.445-.039-.732-.039-.551 0-1.096.125-1.637.373-.541.25-1.061.55-1.559.897l-1.592 6.974h-1.668l2.24-9.817h1.668l-.33 1.45c.777-.545 1.438-.923 1.98-1.134.541-.211 1.062-.316 1.561-.316.287 0 .496.008.625.022l.561.083-.375 1.635zm7.154-1.74l-.299 1.336h-3.412l-1.051 4.532c-.061.229-.111.491-.158.787-.047.298-.07.532-.07.708 0 .43.109.747.326.955s.617.312 1.203.312c.238 0 .523-.041.854-.123.332-.082.557-.146.672-.193h.09l-.309 1.417c-.328.081-.68.147-1.051.2-.373.053-.701.078-.988.078-.809 0-1.436-.178-1.877-.53-.441-.354-.664-.916-.664-1.685 0-.188.016-.373.039-.559l.111-.628 1.221-5.272h-1.115l.301-1.336h1.125l.65-2.821h1.66l-.658 2.821h3.4v.001zm4.408 10.044c-1.357 0-2.424-.318-3.195-.957-.773-.64-1.158-1.573-1.158-2.805 0-1.799.566-3.341 1.703-4.627 1.135-1.285 2.541-1.93 4.215-1.93 1.111 0 1.963.277 2.557.83.59.555.887 1.332.887 2.334 0 .176-.025.453-.074.835-.051.381-.131.823-.242 1.327h-7.232c-.035.17-.061.337-.076.5l-.021.457c0 .826.252 1.477.756 1.947.506.473 1.221.707 2.146.707.645 0 1.309-.125 1.99-.377.684-.253 1.256-.537 1.719-.854h.096l-.359 1.783-.789.291c-.234.088-.533.176-.896.264-.365.088-.686.154-.967.202-.286.051-.638.073-1.06.073zm3.301-6.205l.061-.431.02-.387c0-.627-.172-1.116-.516-1.468-.342-.352-.893-.527-1.646-.527-.832 0-1.57.258-2.215.773-.646.515-1.082 1.195-1.311 2.039h5.607v.001zm12.648-1.598c0 .142-.014.331-.041.571-.025.24-.061.451-.107.633l-1.473 6.372h-1.646l1.285-5.59c.068-.312.123-.581.162-.812.037-.231.057-.463.057-.69 0-.492-.123-.862-.365-1.112-.244-.248-.684-.373-1.316-.373-.445 0-.938.123-1.475.369s-1.062.54-1.57.882l-1.693 7.327h-1.65l2.268-9.816h1.65l-.252 1.088c.627-.438 1.215-.774 1.764-1.01.547-.234 1.111-.352 1.689-.352.855 0 1.523.215 2 .646.475.428.713 1.051.713 1.867zm11.567.861c0 .973-.15 1.887-.453 2.741-.301.855-.701 1.582-1.199 2.181-.502.615-1.088 1.101-1.756 1.455s-1.381.53-2.135.53c-.527 0-1.012-.061-1.455-.18-.441-.119-.844-.295-1.207-.521l-.955 4.13h-1.65l3.104-13.438h1.65l-.236 1.028c.545-.381 1.08-.692 1.607-.937.527-.243 1.109-.364 1.75-.364.953 0 1.684.296 2.184.888.501.592.751 1.422.751 2.487zm-1.731.317c0-.697-.152-1.234-.457-1.613-.305-.377-.791-.566-1.457-.566-.486 0-.99.12-1.512.36-.521.239-1.006.512-1.457.815l-1.285 5.564c.381.205.744.357 1.09.457s.764.148 1.256.148c.604 0 1.146-.146 1.629-.438.484-.293.885-.674 1.201-1.144.332-.491.582-1.039.746-1.644s.246-1.248.246-1.939zm12.657.052c0 .879-.135 1.723-.404 2.53-.27.809-.65 1.513-1.143 2.109-.51.621-1.098 1.105-1.766 1.455-.668.348-1.447.521-2.338.521-1.166 0-2.076-.332-2.73-.996-.652-.666-.979-1.584-.979-2.756 0-.879.133-1.718.398-2.515.268-.797.652-1.506 1.156-2.127.486-.598 1.082-1.075 1.789-1.433.705-.358 1.479-.536 2.314-.536 1.133 0 2.029.321 2.697.967s1.006 1.574 1.006 2.781zm-2.69 3.709c.316-.47.559-1.011.727-1.626.166-.615.25-1.266.25-1.951 0-.82-.197-1.441-.59-1.863s-.945-.633-1.66-.633c-.566 0-1.078.136-1.529.409-.449.271-.842.646-1.17 1.12-.314.463-.559 1.005-.729 1.626-.17.62-.256 1.266-.256 1.934 0 .81.197 1.431.59 1.863s.949.649 1.67.649c.562 0 1.072-.135 1.529-.403s.846-.643 1.168-1.125zm11.928-5.44h-.088c-.232-.059-.451-.101-.652-.128-.203-.024-.447-.039-.732-.039-.551 0-1.096.125-1.639.373-.541.25-1.061.55-1.557.897l-1.592 6.974h-1.668l2.238-9.817h1.668l-.33 1.45c.779-.545 1.439-.923 1.982-1.134.541-.211 1.062-.316 1.559-.316.287 0 .496.008.625.022l.562.083-.376 1.635zm7.156-1.74l-.301 1.336h-3.41l-1.051 4.532c-.059.229-.111.491-.158.787-.047.298-.07.532-.07.708 0 .43.107.747.324.955s.619.312 1.203.312c.24 0 .525-.041.855-.123.332-.082.555-.146.672-.193h.088l-.307 1.417c-.328.081-.678.147-1.051.2-.371.053-.701.078-.988.078-.809 0-1.434-.178-1.877-.53-.441-.354-.664-.916-.664-1.685 0-.188.014-.373.041-.559.025-.184.062-.395.109-.628l1.221-5.272h-1.115l.301-1.336h1.123l.654-2.821h1.658l-.658 2.821h3.401v.001zm5.994 8.771l-.646.4s-.549.319-.83.442c-.299.136-.633.247-1.002.339-.369.09-.795.137-1.275.137-.777 0-1.41-.229-1.896-.682s-.73-1.048-.73-1.779c0-.779.174-1.438.516-1.975.344-.535.852-.974 1.523-1.312.662-.334 1.461-.575 2.396-.727.934-.148 1.998-.24 3.193-.275l.094-.426c.021-.119.035-.244.035-.373 0-.281-.057-.511-.166-.687-.111-.177-.271-.317-.477-.423-.205-.106-.445-.178-.717-.215-.273-.039-.574-.059-.902-.059-.498 0-1.066.081-1.707.241-.639.162-1.156.321-1.557.479h-.088l.326-1.652c.334-.088.822-.188 1.467-.299s1.264-.168 1.854-.168c1.221 0 2.135.19 2.742.572.609.381.914.983.914 1.811 0 .158-.012.326-.039.505l-.092.506-1.535 6.662h-1.639l.238-1.042zm.959-4.131c-.902.035-1.703.104-2.404.206-.699.104-1.279.251-1.736.444-.475.192-.834.455-1.08.785-.246.332-.369.743-.369 1.235 0 .422.145.744.432.967.287.224.73.334 1.334.334.533 0 1.076-.118 1.629-.356.555-.236 1.07-.522 1.551-.856l.643-2.759zm9.889 4.131l-.646.4s-.549.319-.83.442c-.299.136-.633.247-1.002.339-.369.09-.795.137-1.275.137-.779 0-1.412-.229-1.898-.682-.484-.453-.729-1.048-.729-1.779 0-.779.172-1.438.516-1.975.342-.535.852-.974 1.523-1.312.662-.334 1.461-.575 2.395-.727.936-.148 2-.24 3.195-.275l.092-.426c.025-.119.037-.244.037-.373 0-.281-.057-.511-.168-.687-.111-.177-.271-.317-.475-.423-.205-.106-.443-.178-.719-.215-.271-.039-.57-.059-.9-.059-.498 0-1.066.081-1.705.241-.641.162-1.158.321-1.559.479h-.088l.324-1.652c.334-.088.824-.188 1.469-.299s1.264-.168 1.854-.168c1.219 0 2.133.19 2.742.572.609.381.914.983.914 1.811 0 .158-.014.326-.039.505l-.092.506-1.535 6.662h-1.639l.238-1.042zm.959-4.131c-.902.035-1.705.104-2.404.206-.701.104-1.279.251-1.736.444-.475.192-.836.455-1.082.785-.246.332-.369.743-.369 1.235 0 .422.145.744.43.967.287.224.732.334 1.336.334.533 0 1.076-.118 1.629-.356.555-.236 1.07-.522 1.551-.856l.645-2.759zm8.484-8.499l-3.16 13.676h-1.652l3.162-13.676h1.65z"/><path sketch:type="MSShapeGroup" d="M96.213 13.35c-2.52-2.61-5.96-3.92-10.35-3.92s-7.84 1.31-10.34 3.92c-2.5 2.62-4.3 6.17-4.3 10.67 0 12.08 14.5 33.77 14.5 33.77s14.81-23.07 14.81-33.77c0-4.5-1.81-8.05-4.32-10.67zm-10.61 14.99c-2.2 0-3.99-1.83-3.99-4.09 0-2.25 1.79-4.08 3.99-4.08 2.21 0 3.99 1.83 3.99 4.08 0 2.26-1.78 4.09-3.99 4.09z"/></g></svg>