<svg xmlns:sketch="http://www.bohemiancoding.com/sketch/ns" xmlns="http://www.w3.org/2000/svg" width="346" height="69" viewBox="0 0 346 69"><title>Imported Layers</title><desc>Created with Sketch.</desc><g sketch:type="MSLayerGroup" fill="#D9222A"><text sketch:type="MSTextLayer" font-family="Verdana" font-size="48" font-weight="bold" letter-spacing=".03" transform="translate(-43 -938) translate(41 926)"><tspan x=".982" y="48.442">Ge</tspan></text><text sketch:type="MSTextLayer" font-family="Verdana" font-size="48" font-weight="bold" transform="translate(-43 -938) translate(41 926)"/><text sketch:type="MSTextLayer" font-family="Verdana" font-size="48" font-weight="bold" letter-spacing="-1.41" transform="translate(-43 -938) translate(41 926)"><tspan x="106.045" y="48.442">B</tspan><tspan x="141.197" y="48.442" letter-spacing=".025">r</tspan><tspan x="165.082" y="48.442" letter-spacing=".03">abant</tspan></text><text sketch:type="MSTextLayer" font-family="Verdana" font-size="18" font-style="italic" letter-spacing=".038" transform="translate(-43 -938) translate(41 926)"><tspan x="110.593" y="76.794">hét</tspan></text><text id="-" sketch:type="MSTextLayer" font-family="Verdana" font-size="18" font-style="italic" transform="translate(-43 -938) translate(41 926)"/><text sketch:type="MSTextLayer" font-family="Verdana" font-size="18" font-style="italic" letter-spacing=".038" transform="translate(-43 -938) translate(41 926)"><tspan x="148.861" y="76.794">online</tspan></text><text sketch:type="MSTextLayer" font-family="Verdana" font-size="18" font-style="italic" transform="translate(-43 -938) translate(41 926)"/><text sketch:type="MSTextLayer" font-family="Verdana" font-size="18" font-style="italic" letter-spacing=".038" transform="translate(-43 -938) translate(41 926)"><tspan x="214.282" y="76.794">kaartenportaal</tspan></text><path d="M98.61 13.35c-2.52-2.61-5.96-3.92-10.35-3.92s-7.84 1.31-10.34 3.92c-2.5 2.62-4.3 6.17-4.3 10.67 0 12.08 14.5 33.77 14.5 33.77s14.81-23.07 14.81-33.77c0-4.5-1.81-8.05-4.32-10.67zm-10.61 14.99c-2.2 0-3.99-1.83-3.99-4.09 0-2.25 1.79-4.08 3.99-4.08 2.21 0 3.99 1.83 3.99 4.08 0 2.26-1.78 4.09-3.99 4.09z" sketch:type="MSShapeGroup"/></g></svg>