<?xml version="1.0" encoding="utf-8"?>
<!-- Generator: Adobe Illustrator 15.1.0, SVG Export Plug-In . SVG Version: 6.00 Build 0)  -->
<!DOCTYPE svg PUBLIC "-//W3C//DTD SVG 1.1//EN" "http://www.w3.org/Graphics/SVG/1.1/DTD/svg11.dtd">
<svg version="1.1" id="Layer_1" xmlns:sketch="http://www.bohemiancoding.com/sketch/ns"
	 xmlns="http://www.w3.org/2000/svg" xmlns:xlink="http://www.w3.org/1999/xlink" x="0px" y="0px" width="346px" height="69px"
	 viewBox="0 0 346 69" enable-background="new 0 0 346 69" xml:space="preserve">
<title>Imported Layers</title>
<desc>Created with Sketch.</desc>
<g id="Viewer" sketch:type="MSPage">
	<g id="Desktop-HD" transform="translate(-43.000000, -938.000000)" sketch:type="MSArtboardGroup">
		<g id="Imported-Layers" transform="translate(41.000000, 926.000000)" sketch:type="MSLayerGroup">
			<g enable-background="new    ">
				<path fill="#D9222A" d="M36.303,46.45c-1.562,0.609-3.633,1.215-6.211,1.816s-5.148,0.902-7.711,0.902
					c-5.938,0-10.586-1.613-13.945-4.84s-5.039-7.684-5.039-13.371c0-5.422,1.695-9.793,5.086-13.113s8.117-4.98,14.18-4.98
					c2.297,0,4.484,0.207,6.562,0.621s4.391,1.238,6.938,2.473v8.18h-1.008c-0.438-0.328-1.078-0.793-1.922-1.395
					s-1.656-1.113-2.438-1.535c-0.906-0.5-1.965-0.93-3.176-1.289s-2.496-0.539-3.855-0.539c-1.594,0-3.039,0.234-4.336,0.703
					s-2.461,1.188-3.492,2.156c-0.984,0.938-1.762,2.129-2.332,3.574s-0.855,3.113-0.855,5.004c0,3.859,1.023,6.812,3.07,8.859
					s5.07,3.07,9.07,3.07c0.344,0,0.723-0.008,1.137-0.023s0.793-0.039,1.137-0.07V35.81h-6.961v-6.586h16.102V46.45z"/>
				<path fill="#D9222A" d="M69.818,36.841H50.506c0.125,2.062,0.91,3.641,2.355,4.734s3.574,1.641,6.387,1.641
					c1.781,0,3.508-0.32,5.18-0.961s2.992-1.328,3.961-2.062h0.938v6.773c-1.906,0.766-3.703,1.32-5.391,1.664
					s-3.555,0.516-5.602,0.516c-5.281,0-9.328-1.188-12.141-3.562s-4.219-5.758-4.219-10.148c0-4.344,1.332-7.785,3.996-10.324
					s6.316-3.809,10.957-3.809c4.281,0,7.5,1.082,9.656,3.246s3.234,5.277,3.234,9.34V36.841z M61.428,31.896
					c-0.047-1.766-0.484-3.094-1.312-3.984s-2.117-1.336-3.867-1.336c-1.625,0-2.961,0.422-4.008,1.266s-1.633,2.195-1.758,4.055
					H61.428z"/>
			</g>
			<g enable-background="new    ">
			</g>
			<g enable-background="new    ">
				<path fill="#D9222A" d="M140.357,37.755c0,1.688-0.34,3.195-1.02,4.523s-1.613,2.43-2.801,3.305
					c-1.375,1.031-2.887,1.766-4.535,2.203s-3.738,0.656-6.27,0.656h-15.234V13.544h13.547c2.812,0,4.871,0.094,6.176,0.281
					s2.598,0.602,3.879,1.242c1.328,0.672,2.316,1.574,2.965,2.707s0.973,2.426,0.973,3.879c0,1.688-0.445,3.176-1.336,4.465
					s-2.148,2.293-3.773,3.012v0.188c2.281,0.453,4.09,1.391,5.426,2.812S140.357,35.427,140.357,37.755z M128.826,23.411
					c0-0.578-0.145-1.156-0.434-1.734s-0.801-1.008-1.535-1.289c-0.656-0.25-1.473-0.387-2.449-0.41s-2.348-0.035-4.113-0.035
					h-0.844v7.383h1.406c1.422,0,2.633-0.023,3.633-0.07s1.789-0.203,2.367-0.469c0.812-0.359,1.344-0.824,1.594-1.395
					S128.826,24.161,128.826,23.411z M131.006,37.614c0-1.109-0.215-1.965-0.644-2.566s-1.157-1.051-2.187-1.348
					c-0.702-0.203-1.668-0.312-2.9-0.328s-2.519-0.023-3.859-0.023h-1.965v8.695h0.655c2.526,0,4.335-0.008,5.426-0.023
					c1.092-0.016,2.098-0.219,3.018-0.609c0.936-0.391,1.579-0.91,1.93-1.559C130.831,39.204,131.006,38.458,131.006,37.614z"/>
			</g>
			<g>
			</g>
			<g enable-background="new    ">
				<path fill="#D9222A" d="M164.26,30.161h-0.748c-0.359-0.125-0.936-0.219-1.731-0.281s-1.458-0.094-1.988-0.094
					c-1.2,0-2.261,0.078-3.181,0.234s-1.91,0.422-2.97,0.797v17.625h-8.461v-26.32h8.461v3.867c1.855-1.594,3.469-2.652,4.841-3.176
					c1.372-0.523,2.635-0.785,3.789-0.785c0.296,0,0.631,0.008,1.005,0.023c0.375,0.016,0.702,0.039,0.982,0.07V30.161z"/>
			</g>
			<g>
			</g>
			<g enable-background="new    ">
				<path fill="#D9222A" d="M185.004,45.653c-0.453,0.344-1.016,0.758-1.688,1.242s-1.305,0.867-1.898,1.148
					c-0.828,0.375-1.688,0.652-2.578,0.832s-1.867,0.27-2.93,0.27c-2.5,0-4.594-0.773-6.281-2.32s-2.531-3.523-2.531-5.93
					c0-1.922,0.43-3.492,1.289-4.711s2.078-2.18,3.656-2.883c1.562-0.703,3.5-1.203,5.812-1.5s4.711-0.516,7.195-0.656v-0.141
					c0-1.453-0.594-2.457-1.781-3.012s-2.938-0.832-5.25-0.832c-1.391,0-2.875,0.246-4.453,0.738s-2.711,0.871-3.398,1.137h-0.773
					v-6.352c0.891-0.234,2.34-0.512,4.348-0.832s4.02-0.48,6.035-0.48c4.797,0,8.262,0.738,10.395,2.215s3.199,3.793,3.199,6.949
					v17.906h-8.367V45.653z M185.004,41.558v-5.467c-1.141,0.094-2.375,0.223-3.703,0.386s-2.336,0.354-3.023,0.572
					c-0.844,0.265-1.488,0.65-1.934,1.156c-0.445,0.507-0.668,1.172-0.668,1.997c0,0.546,0.047,0.989,0.141,1.332
					s0.328,0.67,0.703,0.981c0.359,0.312,0.789,0.541,1.289,0.689c0.5,0.147,1.281,0.222,2.344,0.222
					c0.844,0,1.699-0.171,2.566-0.514S184.348,42.118,185.004,41.558z"/>
				<path fill="#D9222A" d="M228.598,34.919c0,4.141-1.144,7.516-3.43,10.125s-5.139,3.914-8.556,3.914
					c-1.467,0-2.755-0.156-3.862-0.469c-1.108-0.312-2.162-0.766-3.16-1.359l-0.353,1.312h-8.108V11.974h8.461v12.891
					c1.295-1.031,2.617-1.867,3.968-2.508c1.35-0.641,2.906-0.961,4.67-0.961c3.323,0,5.884,1.199,7.679,3.598
					C227.7,27.392,228.598,30.7,228.598,34.919z M219.902,35.095c0-2.34-0.397-4.142-1.193-5.405
					c-0.795-1.264-2.213-1.896-4.255-1.896c-0.796,0-1.614,0.121-2.456,0.363c-0.842,0.241-1.645,0.589-2.408,1.041v13.198
					c0.607,0.219,1.185,0.366,1.73,0.444c0.545,0.078,1.2,0.117,1.965,0.117c2.229,0,3.889-0.655,4.98-1.966
					C219.356,39.683,219.902,37.717,219.902,35.095z"/>
				<path fill="#D9222A" d="M250.629,45.653c-0.453,0.344-1.016,0.758-1.688,1.242s-1.305,0.867-1.898,1.148
					c-0.828,0.375-1.688,0.652-2.578,0.832s-1.867,0.27-2.93,0.27c-2.5,0-4.594-0.773-6.281-2.32s-2.531-3.523-2.531-5.93
					c0-1.922,0.43-3.492,1.289-4.711s2.078-2.18,3.656-2.883c1.562-0.703,3.5-1.203,5.812-1.5s4.711-0.516,7.195-0.656v-0.141
					c0-1.453-0.594-2.457-1.781-3.012s-2.938-0.832-5.25-0.832c-1.391,0-2.875,0.246-4.453,0.738s-2.711,0.871-3.398,1.137h-0.773
					v-6.352c0.891-0.234,2.34-0.512,4.348-0.832s4.02-0.48,6.035-0.48c4.797,0,8.262,0.738,10.395,2.215s3.199,3.793,3.199,6.949
					v17.906h-8.367V45.653z M250.629,41.558v-5.467c-1.141,0.094-2.375,0.223-3.703,0.386s-2.336,0.354-3.023,0.572
					c-0.844,0.265-1.488,0.65-1.934,1.156c-0.445,0.507-0.668,1.172-0.668,1.997c0,0.546,0.047,0.989,0.141,1.332
					s0.328,0.67,0.703,0.981c0.359,0.312,0.789,0.541,1.289,0.689c0.5,0.147,1.281,0.222,2.344,0.222
					c0.844,0,1.699-0.171,2.566-0.514S249.973,42.118,250.629,41.558z"/>
				<path fill="#D9222A" d="M293.191,48.442h-8.461V35.388c0-1.062-0.055-2.121-0.164-3.176s-0.297-1.832-0.562-2.332
					c-0.312-0.578-0.77-1-1.371-1.266s-1.441-0.398-2.52-0.398c-0.766,0-1.543,0.125-2.332,0.375s-1.645,0.648-2.566,1.195v18.656
					h-8.461v-26.32h8.461v2.906c1.498-1.172,2.938-2.07,4.318-2.695s2.914-0.938,4.6-0.938c2.84,0,5.06,0.828,6.659,2.484
					s2.399,4.133,2.399,7.43V48.442z"/>
				<path fill="#D9222A" d="M317.777,48.211c-0.906,0.233-1.867,0.416-2.883,0.549c-1.016,0.132-2.258,0.198-3.727,0.198
					c-3.281,0-5.723-0.664-7.324-1.992s-2.402-3.602-2.402-6.82V27.841h-3.469v-5.719h3.469v-7.523h8.461v7.523h7.875v5.719h-7.875
					v9.343c0,0.923,0.008,1.729,0.023,2.417s0.141,1.307,0.374,1.854c0.218,0.548,0.604,0.982,1.156,1.303
					c0.554,0.321,1.359,0.481,2.419,0.481c0.436,0,1.008-0.094,1.717-0.281s1.204-0.359,1.484-0.516h0.701V48.211z"/>
			</g>
			<g enable-background="new    ">
				<path fill="#D9222A" d="M120.92,69.218c0,0.141-0.013,0.331-0.04,0.571s-0.063,0.451-0.11,0.633l-1.476,6.372h-1.647l1.288-5.59
					c0.07-0.311,0.125-0.581,0.163-0.812c0.038-0.231,0.057-0.462,0.057-0.69c0-0.492-0.122-0.862-0.366-1.112
					c-0.244-0.248-0.683-0.373-1.317-0.373c-0.446,0-0.938,0.123-1.476,0.369s-1.062,0.541-1.572,0.884l-1.688,7.325h-1.651
					l3.152-13.676h1.65l-1.141,4.95c0.627-0.44,1.215-0.778,1.763-1.013c0.548-0.234,1.113-0.352,1.693-0.352
					c0.856,0,1.523,0.215,2,0.646C120.681,67.78,120.92,68.403,120.92,69.218z"/>
				<path fill="#D9222A" d="M127.157,77.022c-1.358,0-2.423-0.319-3.196-0.958c-0.772-0.639-1.159-1.573-1.159-2.804
					c0-1.799,0.568-3.341,1.704-4.627s2.541-1.93,4.215-1.93c1.112,0,1.964,0.277,2.555,0.83c0.591,0.555,0.887,1.332,0.887,2.334
					c0,0.176-0.025,0.454-0.075,0.835s-0.13,0.823-0.242,1.327h-7.233c-0.035,0.17-0.06,0.337-0.075,0.501s-0.022,0.316-0.022,0.457
					c0,0.826,0.252,1.476,0.756,1.946c0.504,0.473,1.219,0.708,2.145,0.708c0.645,0,1.308-0.126,1.991-0.378
					s1.255-0.536,1.718-0.853h0.097l-0.36,1.784c-0.293,0.105-0.556,0.202-0.791,0.29c-0.234,0.088-0.532,0.176-0.896,0.264
					c-0.363,0.088-0.685,0.155-0.966,0.202C127.929,76.999,127.578,77.022,127.157,77.022z M130.457,70.817
					c0.029-0.17,0.05-0.313,0.062-0.431s0.018-0.246,0.018-0.387c0-0.627-0.171-1.116-0.514-1.468s-0.892-0.527-1.648-0.527
					c-0.832,0-1.57,0.258-2.215,0.773s-1.081,1.195-1.31,2.039H130.457z M131.995,62.063l-3.12,3.287h-1.371l2.232-3.287H131.995z"
					/>
				<path fill="#D9222A" d="M140.635,66.977l-0.299,1.336h-3.412l-1.051,4.532c-0.059,0.229-0.111,0.491-0.158,0.787
					c-0.047,0.297-0.07,0.532-0.07,0.708c0,0.429,0.108,0.747,0.325,0.955s0.618,0.312,1.203,0.312c0.24,0,0.525-0.041,0.856-0.123
					c0.331-0.082,0.555-0.146,0.672-0.193h0.088l-0.308,1.417c-0.328,0.081-0.678,0.148-1.05,0.2
					c-0.372,0.053-0.702,0.079-0.989,0.079c-0.809,0-1.434-0.178-1.876-0.531c-0.442-0.354-0.664-0.916-0.664-1.684
					c0-0.188,0.013-0.373,0.04-0.559c0.026-0.184,0.063-0.394,0.11-0.628l1.221-5.273h-1.115l0.301-1.336h1.124l0.653-2.821h1.66
					l-0.659,2.821H140.635z"/>
			</g>
			<g enable-background="new    ">
			</g>
			<g enable-background="new    ">
				<path fill="#D9222A" d="M159.003,70.448c0,0.879-0.135,1.723-0.404,2.531s-0.65,1.512-1.143,2.109
					c-0.51,0.621-1.099,1.106-1.767,1.455c-0.668,0.348-1.447,0.522-2.338,0.522c-1.166,0-2.076-0.332-2.729-0.997
					s-0.98-1.584-0.98-2.756c0-0.879,0.133-1.717,0.4-2.514s0.652-1.506,1.156-2.127c0.486-0.598,1.083-1.075,1.789-1.433
					s1.478-0.536,2.316-0.536c1.131,0,2.03,0.322,2.698,0.967S159.003,69.241,159.003,70.448z M156.314,74.157
					c0.316-0.469,0.558-1.011,0.725-1.626s0.25-1.266,0.25-1.951c0-0.82-0.196-1.441-0.589-1.863s-0.946-0.633-1.661-0.633
					c-0.568,0-1.078,0.136-1.529,0.409c-0.451,0.271-0.841,0.646-1.169,1.12c-0.316,0.463-0.56,1.005-0.729,1.626
					s-0.255,1.266-0.255,1.934c0,0.809,0.196,1.43,0.589,1.863s0.949,0.65,1.67,0.65c0.562,0,1.072-0.135,1.529-0.404
					S155.992,74.638,156.314,74.157z"/>
				<path fill="#D9222A" d="M170.149,69.218c0,0.141-0.013,0.331-0.04,0.571s-0.062,0.451-0.109,0.633l-1.471,6.372h-1.646
					l1.284-5.59c0.07-0.311,0.124-0.581,0.162-0.812c0.038-0.231,0.057-0.462,0.057-0.69c0-0.492-0.122-0.862-0.365-1.112
					c-0.244-0.248-0.683-0.373-1.316-0.373c-0.446,0-0.938,0.123-1.475,0.369s-1.061,0.54-1.572,0.882l-1.692,7.327h-1.651
					l2.268-9.817h1.65l-0.251,1.089c0.627-0.438,1.214-0.775,1.762-1.01c0.548-0.234,1.112-0.352,1.691-0.352
					c0.855,0,1.522,0.215,1.999,0.646C169.91,67.78,170.149,68.403,170.149,69.218z"/>
				<path fill="#D9222A" d="M176.57,63.118l-3.162,13.676h-1.651l3.161-13.676H176.57z"/>
				<path fill="#D9222A" d="M180.651,66.977l-2.267,9.817h-1.651l2.268-9.817H180.651z M181.55,63.619l-0.397,1.714h-1.87
					l0.397-1.714H181.55z"/>
				<path fill="#D9222A" d="M191.526,69.218c0,0.141-0.013,0.331-0.04,0.571c-0.025,0.24-0.062,0.451-0.109,0.633l-1.471,6.372
					h-1.646l1.284-5.59c0.069-0.311,0.124-0.581,0.161-0.812c0.038-0.231,0.057-0.462,0.057-0.69c0-0.492-0.121-0.862-0.365-1.112
					c-0.243-0.248-0.682-0.373-1.316-0.373c-0.445,0-0.938,0.123-1.475,0.369s-1.061,0.54-1.571,0.882l-1.692,7.327h-1.65
					l2.268-9.817h1.65l-0.252,1.089c0.627-0.438,1.215-0.775,1.762-1.01c0.549-0.234,1.112-0.352,1.691-0.352
					c0.855,0,1.522,0.215,2,0.646C191.287,67.78,191.526,68.403,191.526,69.218z"/>
				<path fill="#D9222A" d="M197.764,77.022c-1.359,0-2.424-0.319-3.197-0.958c-0.771-0.639-1.158-1.573-1.158-2.804
					c0-1.799,0.568-3.341,1.703-4.627c1.137-1.286,2.541-1.93,4.215-1.93c1.112,0,1.965,0.277,2.556,0.83
					c0.591,0.555,0.887,1.332,0.887,2.334c0,0.176-0.024,0.454-0.075,0.835c-0.049,0.381-0.13,0.823-0.241,1.327h-7.233
					c-0.035,0.17-0.061,0.337-0.074,0.501c-0.016,0.164-0.022,0.316-0.022,0.457c0,0.826,0.252,1.476,0.756,1.946
					c0.504,0.473,1.219,0.708,2.145,0.708c0.645,0,1.308-0.126,1.991-0.378c0.682-0.252,1.255-0.536,1.718-0.853h0.097l-0.359,1.784
					c-0.293,0.105-0.557,0.202-0.791,0.29s-0.532,0.176-0.896,0.264c-0.362,0.088-0.685,0.155-0.966,0.202
					S198.185,77.022,197.764,77.022z M201.063,70.817c0.029-0.17,0.05-0.313,0.062-0.431s0.018-0.246,0.018-0.387
					c0-0.627-0.172-1.116-0.514-1.468c-0.344-0.352-0.893-0.527-1.648-0.527c-0.832,0-1.57,0.258-2.215,0.773
					s-1.081,1.195-1.31,2.039H201.063z"/>
			</g>
			<g enable-background="new    ">
			</g>
			<g enable-background="new    ">
				<path fill="#D9222A" d="M223.791,76.794h-2.001l-3.144-4.318l-1.42,1.152l-0.723,3.166h-1.668l3.16-13.676h1.67l-2.029,8.778
					l5.744-4.92h2.178l-5.602,4.641L223.791,76.794z"/>
				<path fill="#D9222A" d="M231.606,75.748c-0.158,0.094-0.374,0.228-0.646,0.4c-0.273,0.173-0.55,0.32-0.831,0.443
					c-0.299,0.135-0.633,0.247-1.002,0.339c-0.369,0.09-0.794,0.136-1.274,0.136c-0.779,0-1.412-0.228-1.898-0.681
					c-0.486-0.454-0.73-1.048-0.73-1.78c0-0.779,0.172-1.437,0.515-1.974c0.343-0.535,0.851-0.974,1.524-1.313
					c0.662-0.334,1.461-0.575,2.395-0.726c0.936-0.148,2-0.241,3.195-0.276c0.037-0.164,0.066-0.306,0.092-0.426
					c0.024-0.119,0.037-0.244,0.037-0.373c0-0.281-0.057-0.51-0.168-0.686c-0.111-0.177-0.27-0.317-0.475-0.423
					s-0.444-0.177-0.717-0.215c-0.273-0.038-0.573-0.058-0.902-0.058c-0.498,0-1.066,0.081-1.706,0.241
					c-0.64,0.162-1.158,0.321-1.558,0.479h-0.088l0.326-1.652c0.334-0.088,0.822-0.188,1.467-0.299s1.264-0.167,1.855-0.167
					c1.219,0,2.133,0.19,2.742,0.571s0.914,0.984,0.914,1.811c0,0.158-0.014,0.327-0.04,0.505c-0.026,0.18-0.058,0.348-0.092,0.506
					l-1.534,6.662h-1.64L231.606,75.748z M232.565,71.617c-0.902,0.035-1.704,0.104-2.404,0.206c-0.7,0.104-1.279,0.251-1.736,0.444
					c-0.475,0.193-0.835,0.456-1.081,0.786c-0.246,0.332-0.369,0.743-0.369,1.235c0,0.422,0.143,0.744,0.43,0.967
					s0.732,0.334,1.335,0.334c0.533,0,1.076-0.118,1.63-0.356c0.553-0.237,1.07-0.523,1.55-0.857L232.565,71.617z"/>
				<path fill="#D9222A" d="M242.453,75.748c-0.158,0.094-0.374,0.228-0.646,0.4s-0.549,0.32-0.83,0.443
					c-0.299,0.135-0.633,0.247-1.002,0.339c-0.369,0.09-0.795,0.136-1.275,0.136c-0.779,0-1.412-0.228-1.898-0.681
					c-0.486-0.454-0.729-1.048-0.729-1.78c0-0.779,0.171-1.437,0.515-1.974c0.342-0.535,0.851-0.974,1.523-1.313
					c0.662-0.334,1.461-0.575,2.396-0.726c0.935-0.148,1.999-0.241,3.194-0.276c0.037-0.164,0.067-0.306,0.092-0.426
					c0.025-0.119,0.037-0.244,0.037-0.373c0-0.281-0.056-0.51-0.167-0.686c-0.112-0.177-0.271-0.317-0.476-0.423
					s-0.443-0.177-0.717-0.215c-0.272-0.038-0.572-0.058-0.901-0.058c-0.499,0-1.067,0.081-1.706,0.241
					c-0.64,0.162-1.158,0.321-1.558,0.479h-0.088l0.325-1.652c0.334-0.088,0.823-0.188,1.468-0.299s1.263-0.167,1.854-0.167
					c1.219,0,2.133,0.19,2.742,0.571s0.914,0.984,0.914,1.811c0,0.158-0.014,0.327-0.039,0.505c-0.027,0.18-0.058,0.348-0.092,0.506
					l-1.535,6.662h-1.639L242.453,75.748z M243.412,71.617c-0.902,0.035-1.705,0.104-2.404,0.206
					c-0.701,0.104-1.279,0.251-1.736,0.444c-0.475,0.193-0.836,0.456-1.082,0.786c-0.246,0.332-0.369,0.743-0.369,1.235
					c0,0.422,0.144,0.744,0.43,0.967c0.287,0.223,0.732,0.334,1.336,0.334c0.533,0,1.076-0.118,1.629-0.356
					c0.553-0.237,1.07-0.523,1.551-0.857L243.412,71.617z"/>
				<path fill="#D9222A" d="M254.996,68.717h-0.088c-0.234-0.059-0.452-0.101-0.654-0.128c-0.201-0.025-0.445-0.039-0.732-0.039
					c-0.551,0-1.096,0.125-1.637,0.373c-0.541,0.25-1.061,0.549-1.559,0.897l-1.591,6.974h-1.668l2.24-9.817h1.668l-0.331,1.45
					c0.779-0.545,1.439-0.923,1.982-1.134c0.541-0.211,1.062-0.316,1.56-0.316c0.287,0,0.495,0.008,0.624,0.022
					s0.316,0.042,0.562,0.083L254.996,68.717z"/>
				<path fill="#D9222A" d="M262.15,66.977l-0.299,1.336h-3.412l-1.051,4.532c-0.059,0.229-0.111,0.491-0.158,0.787
					c-0.047,0.297-0.07,0.532-0.07,0.708c0,0.429,0.109,0.747,0.326,0.955s0.617,0.312,1.203,0.312c0.239,0,0.525-0.041,0.855-0.123
					c0.331-0.082,0.555-0.146,0.672-0.193h0.088l-0.308,1.417c-0.328,0.081-0.679,0.148-1.05,0.2
					c-0.373,0.053-0.702,0.079-0.989,0.079c-0.809,0-1.435-0.178-1.876-0.531c-0.443-0.354-0.664-0.916-0.664-1.684
					c0-0.188,0.014-0.373,0.039-0.559c0.027-0.184,0.063-0.394,0.11-0.628l1.221-5.273h-1.115l0.301-1.336h1.124l0.652-2.821h1.66
					l-0.658,2.821H262.15z"/>
				<path fill="#D9222A" d="M266.559,77.022c-1.357,0-2.423-0.319-3.195-0.958c-0.773-0.639-1.159-1.573-1.159-2.804
					c0-1.799,0.567-3.341,1.704-4.627c1.135-1.286,2.54-1.93,4.215-1.93c1.111,0,1.963,0.277,2.555,0.83
					c0.591,0.555,0.887,1.332,0.887,2.334c0,0.176-0.025,0.454-0.074,0.835c-0.051,0.381-0.131,0.823-0.242,1.327h-7.233
					c-0.035,0.17-0.06,0.337-0.075,0.501c-0.014,0.164-0.021,0.316-0.021,0.457c0,0.826,0.252,1.476,0.756,1.946
					c0.504,0.473,1.219,0.708,2.145,0.708c0.645,0,1.309-0.126,1.99-0.378c0.684-0.252,1.256-0.536,1.719-0.853h0.097l-0.36,1.784
					c-0.293,0.105-0.556,0.202-0.79,0.29c-0.233,0.088-0.532,0.176-0.896,0.264s-0.685,0.155-0.966,0.202
					C267.332,76.999,266.98,77.022,266.559,77.022z M269.859,70.817c0.029-0.17,0.05-0.313,0.062-0.431s0.018-0.246,0.018-0.387
					c0-0.627-0.171-1.116-0.515-1.468c-0.342-0.352-0.892-0.527-1.647-0.527c-0.832,0-1.57,0.258-2.215,0.773
					s-1.081,1.195-1.31,2.039H269.859z"/>
				<path fill="#D9222A" d="M282.508,69.218c0,0.141-0.014,0.331-0.04,0.571s-0.062,0.451-0.109,0.633l-1.472,6.372h-1.646
					l1.285-5.59c0.069-0.311,0.123-0.581,0.161-0.812s0.057-0.462,0.057-0.69c0-0.492-0.122-0.862-0.365-1.112
					c-0.243-0.248-0.683-0.373-1.316-0.373c-0.446,0-0.938,0.123-1.475,0.369s-1.062,0.54-1.571,0.882l-1.692,7.327h-1.651
					l2.268-9.817h1.65l-0.251,1.089c0.627-0.438,1.214-0.775,1.762-1.01s1.112-0.352,1.691-0.352c0.855,0,1.522,0.215,1.999,0.646
					C282.269,67.78,282.508,68.403,282.508,69.218z"/>
				<path fill="#D9222A" d="M294.074,70.079c0,0.973-0.15,1.887-0.452,2.742s-0.701,1.582-1.199,2.18
					c-0.503,0.615-1.089,1.101-1.757,1.455c-0.668,0.354-1.38,0.531-2.135,0.531c-0.527,0-1.012-0.061-1.455-0.18
					c-0.441-0.12-0.844-0.295-1.207-0.522l-0.954,4.13h-1.651l3.104-13.438h1.65l-0.237,1.028c0.545-0.381,1.081-0.692,1.608-0.936
					s1.11-0.365,1.749-0.365c0.955,0,1.684,0.296,2.185,0.888S294.074,69.013,294.074,70.079z M292.344,70.396
					c0-0.697-0.152-1.234-0.457-1.613c-0.305-0.377-0.791-0.566-1.457-0.566c-0.486,0-0.99,0.12-1.512,0.36
					c-0.521,0.24-1.006,0.512-1.457,0.815l-1.285,5.565c0.381,0.205,0.744,0.357,1.089,0.457c0.346,0.1,0.765,0.149,1.257,0.149
					c0.604,0,1.146-0.146,1.629-0.439c0.484-0.293,0.884-0.674,1.2-1.143c0.333-0.492,0.583-1.04,0.747-1.644
					S292.344,71.087,292.344,70.396z"/>
				<path fill="#D9222A" d="M305,70.448c0,0.879-0.135,1.723-0.404,2.531s-0.65,1.512-1.143,2.109
					c-0.51,0.621-1.098,1.106-1.766,1.455c-0.668,0.348-1.447,0.522-2.338,0.522c-1.166,0-2.076-0.332-2.729-0.997
					s-0.979-1.584-0.979-2.756c0-0.879,0.133-1.717,0.399-2.514s0.651-1.506,1.155-2.127c0.486-0.598,1.083-1.075,1.789-1.433
					s1.479-0.536,2.316-0.536c1.131,0,2.029,0.322,2.697,0.967S305,69.241,305,70.448z M302.311,74.157
					c0.316-0.469,0.559-1.011,0.726-1.626s0.251-1.266,0.251-1.951c0-0.82-0.197-1.441-0.59-1.863s-0.945-0.633-1.66-0.633
					c-0.568,0-1.078,0.136-1.529,0.409c-0.451,0.271-0.842,0.646-1.17,1.12c-0.316,0.463-0.559,1.005-0.729,1.626
					s-0.256,1.266-0.256,1.934c0,0.809,0.197,1.43,0.59,1.863s0.949,0.65,1.67,0.65c0.562,0,1.072-0.135,1.529-0.404
					S301.988,74.638,302.311,74.157z"/>
				<path fill="#D9222A" d="M314.239,68.717h-0.088c-0.233-0.059-0.452-0.101-0.653-0.128c-0.202-0.025-0.446-0.039-0.733-0.039
					c-0.55,0-1.095,0.125-1.637,0.373c-0.541,0.25-1.061,0.549-1.558,0.897l-1.592,6.974h-1.668l2.24-9.817h1.668l-0.33,1.45
					c0.779-0.545,1.439-0.923,1.981-1.134s1.062-0.316,1.56-0.316c0.287,0,0.496,0.008,0.625,0.022s0.316,0.042,0.562,0.083
					L314.239,68.717z"/>
				<path fill="#D9222A" d="M321.394,66.977l-0.299,1.336h-3.411l-1.051,4.532c-0.059,0.229-0.111,0.491-0.158,0.787
					c-0.047,0.297-0.07,0.532-0.07,0.708c0,0.429,0.107,0.747,0.324,0.955s0.618,0.312,1.203,0.312c0.24,0,0.525-0.041,0.856-0.123
					s0.555-0.146,0.672-0.193h0.088l-0.308,1.417c-0.328,0.081-0.678,0.148-1.051,0.2c-0.371,0.053-0.701,0.079-0.988,0.079
					c-0.809,0-1.434-0.178-1.877-0.531c-0.441-0.354-0.663-0.916-0.663-1.684c0-0.188,0.013-0.373,0.04-0.559
					c0.025-0.184,0.062-0.394,0.109-0.628l1.221-5.273h-1.115l0.301-1.336h1.123l0.654-2.821h1.659l-0.659,2.821H321.394z"/>
				<path fill="#D9222A" d="M327.389,75.748c-0.158,0.094-0.373,0.228-0.646,0.4s-0.55,0.32-0.831,0.443
					c-0.299,0.135-0.633,0.247-1.002,0.339c-0.369,0.09-0.794,0.136-1.274,0.136c-0.779,0-1.412-0.228-1.898-0.681
					c-0.486-0.454-0.729-1.048-0.729-1.78c0-0.779,0.172-1.437,0.514-1.974c0.344-0.535,0.852-0.974,1.525-1.313
					c0.662-0.334,1.46-0.575,2.395-0.726c0.935-0.148,1.999-0.241,3.194-0.276c0.037-0.164,0.067-0.306,0.093-0.426
					c0.023-0.119,0.036-0.244,0.036-0.373c0-0.281-0.056-0.51-0.167-0.686c-0.111-0.177-0.27-0.317-0.475-0.423
					s-0.445-0.177-0.717-0.215c-0.273-0.038-0.574-0.058-0.902-0.058c-0.498,0-1.067,0.081-1.707,0.241
					c-0.639,0.162-1.158,0.321-1.557,0.479h-0.088l0.325-1.652c0.334-0.088,0.823-0.188,1.468-0.299s1.263-0.167,1.854-0.167
					c1.219,0,2.133,0.19,2.742,0.571s0.914,0.984,0.914,1.811c0,0.158-0.013,0.327-0.04,0.505c-0.025,0.18-0.057,0.348-0.092,0.506
					l-1.534,6.662h-1.64L327.389,75.748z M328.348,71.617c-0.902,0.035-1.703,0.104-2.404,0.206
					c-0.699,0.104-1.279,0.251-1.736,0.444c-0.475,0.193-0.835,0.456-1.081,0.786c-0.246,0.332-0.369,0.743-0.369,1.235
					c0,0.422,0.144,0.744,0.431,0.967s0.731,0.334,1.334,0.334c0.533,0,1.076-0.118,1.63-0.356c0.554-0.237,1.07-0.523,1.55-0.857
					L328.348,71.617z"/>
				<path fill="#D9222A" d="M338.236,75.748c-0.158,0.094-0.374,0.228-0.646,0.4s-0.549,0.32-0.83,0.443
					c-0.299,0.135-0.633,0.247-1.002,0.339c-0.369,0.09-0.795,0.136-1.275,0.136c-0.779,0-1.412-0.228-1.898-0.681
					c-0.486-0.454-0.729-1.048-0.729-1.78c0-0.779,0.171-1.437,0.515-1.974c0.342-0.535,0.851-0.974,1.523-1.313
					c0.662-0.334,1.461-0.575,2.396-0.726c0.935-0.148,1.999-0.241,3.194-0.276c0.037-0.164,0.067-0.306,0.092-0.426
					c0.025-0.119,0.037-0.244,0.037-0.373c0-0.281-0.056-0.51-0.167-0.686c-0.112-0.177-0.271-0.317-0.476-0.423
					s-0.443-0.177-0.717-0.215c-0.272-0.038-0.572-0.058-0.901-0.058c-0.499,0-1.067,0.081-1.706,0.241
					c-0.64,0.162-1.158,0.321-1.558,0.479h-0.088l0.325-1.652c0.334-0.088,0.823-0.188,1.468-0.299s1.263-0.167,1.854-0.167
					c1.219,0,2.133,0.19,2.742,0.571s0.914,0.984,0.914,1.811c0,0.158-0.014,0.327-0.039,0.505c-0.027,0.18-0.058,0.348-0.092,0.506
					l-1.535,6.662h-1.639L338.236,75.748z M339.195,71.617c-0.902,0.035-1.705,0.104-2.404,0.206
					c-0.701,0.104-1.279,0.251-1.736,0.444c-0.475,0.193-0.836,0.456-1.082,0.786c-0.246,0.332-0.369,0.743-0.369,1.235
					c0,0.422,0.144,0.744,0.43,0.967c0.287,0.223,0.732,0.334,1.336,0.334c0.533,0,1.076-0.118,1.629-0.356
					c0.553-0.237,1.07-0.523,1.551-0.857L339.195,71.617z"/>
				<path fill="#D9222A" d="M347.68,63.118l-3.161,13.676h-1.651l3.162-13.676H347.68z"/>
			</g>
			<path id="Fill-1" sketch:type="MSShapeGroup" fill="#D9222A" d="M100.61,25.35c-2.52-2.61-5.96-3.92-10.35-3.92
				c-4.39,0-7.84,1.31-10.34,3.92c-2.5,2.62-4.3,6.17-4.3,10.67c0,12.08,14.5,33.77,14.5,33.77s14.81-23.07,14.81-33.77
				C104.93,31.52,103.12,27.97,100.61,25.35L100.61,25.35z M90,40.34c-2.2,0-3.99-1.83-3.99-4.09c0-2.25,1.79-4.08,3.99-4.08
				c2.21,0,3.99,1.83,3.99,4.08C93.99,38.51,92.21,40.34,90,40.34L90,40.34z"/>
		</g>
	</g>
</g>
</svg>
