<?xml version="1.0" encoding="UTF-8" standalone="no"?>
<svg width="346px" height="69px" viewBox="0 0 346 69" version="1.1" xmlns="http://www.w3.org/2000/svg" xmlns:xlink="http://www.w3.org/1999/xlink" xmlns:sketch="http://www.bohemiancoding.com/sketch/ns">
    <!-- Generator: Sketch 3.2.2 (9983) - http://www.bohemiancoding.com/sketch -->
    <title>Imported Layers</title>
    <desc>Created with Sketch.</desc>
    <defs></defs>
    <g id="Viewer" stroke="none" stroke-width="1" fill="none" fill-rule="evenodd" sketch:type="MSPage">
        <g id="Desktop-HD" sketch:type="MSArtboardGroup" transform="translate(-43.000000, -938.000000)" fill="#D9222A">
            <g id="Imported-Layers" sketch:type="MSLayerGroup" transform="translate(41.000000, 926.000000)">
                <text id="Ge" sketch:type="MSTextLayer" font-family="Verdana" font-size="48" font-weight="bold" letter-spacing="0.03">
                    <tspan x="0.9824" y="48.4423625">Ge</tspan>
                </text>
                <text id="--" sketch:type="MSTextLayer" font-family="Verdana" font-size="48" font-weight="bold">
                    <tspan x="73.232" y="48.4423625">  </tspan>
                </text>
                <text id="Brabant" sketch:type="MSTextLayer" font-family="Verdana" font-size="48" font-weight="bold" letter-spacing="-1.41">
                    <tspan x="106.0448" y="48.4423625">B</tspan>
                    <tspan x="141.1973" y="48.4423625" letter-spacing="0.0252">r</tspan>
                    <tspan x="165.081875" y="48.4423625" letter-spacing="0.03">abant</tspan>
                </text>
                <text id="hét" sketch:type="MSTextLayer" font-family="Verdana" font-size="18" font-style="italic" font-weight="normal" letter-spacing="0.038">
                    <tspan x="110.5928" y="76.7939234">hét</tspan>
                </text>
                <text id="-" sketch:type="MSTextLayer" font-family="Verdana" font-size="18" font-style="italic" font-weight="normal">
                    <tspan x="141.8498" y="76.7939234"> </tspan>
                </text>
                <text id="online" sketch:type="MSTextLayer" font-family="Verdana" font-size="18" font-style="italic" font-weight="normal" letter-spacing="0.038">
                    <tspan x="148.8608" y="76.7939234">online</tspan>
                </text>
                <text id="-" sketch:type="MSTextLayer" font-family="Verdana" font-size="18" font-style="italic" font-weight="normal">
                    <tspan x="207.2708" y="76.7939234"> </tspan>
                </text>
                <text id="kaartenportaal" sketch:type="MSTextLayer" font-family="Verdana" font-size="18" font-style="italic" font-weight="normal" letter-spacing="0.038">
                    <tspan x="214.2818" y="76.7939234">kaartenportaal</tspan>
                </text>
                <path d="M100.61,25.35 C98.09,22.74 94.65,21.43 90.26,21.43 C85.87,21.43 82.42,22.74 79.92,25.35 C77.42,27.97 75.62,31.52 75.62,36.02 C75.62,48.1 90.12,69.79 90.12,69.79 C90.12,69.79 104.93,46.72 104.93,36.02 C104.93,31.52 103.12,27.97 100.61,25.35 L100.61,25.35 Z M90,40.34 C87.8,40.34 86.01,38.51 86.01,36.25 C86.01,34 87.8,32.17 90,32.17 C92.21,32.17 93.99,34 93.99,36.25 C93.99,38.51 92.21,40.34 90,40.34 L90,40.34 Z" id="Fill-1" sketch:type="MSShapeGroup"></path>
            </g>
        </g>
    </g>
</svg>