<svg width="33" height="33" viewBox="0 0 33 33" xmlns="http://www.w3.org/2000/svg" xmlns:sketch="http://www.bohemiancoding.com/sketch/ns"><title>F_icon</title><desc>Created with Sketch.</desc><g sketch:type="MSLayerGroup" fill="none"><path d="M31.099 32.912c1.001 0 1.812-.811 1.812-1.812v-29.212c0-1.001-.811-1.812-1.812-1.812h-29.212c-1.001 0-1.812.811-1.812 1.812v29.212c0 1.001.811 1.812 1.812 1.812h29.212z" fill="#4C6FAA" sketch:type="MSShapeGroup"/><path d="M22.732 32.912v-12.716h4.268l.639-4.956h-4.907v-3.164c0-1.435.398-2.413 2.456-2.413l2.624-.001v-4.432c-.454-.06-2.012-.195-3.824-.195-3.784 0-6.374 2.309-6.374 6.551v3.655h-4.279v4.956h4.279v12.716h5.118z" fill="#fff" sketch:type="MSShapeGroup"/></g></svg>