<?xml version="1.0" encoding="UTF-8" standalone="no"?>
<svg width="28px" height="29px" viewBox="0 0 28 29" version="1.1" xmlns="http://www.w3.org/2000/svg" xmlns:xlink="http://www.w3.org/1999/xlink" xmlns:sketch="http://www.bohemiancoding.com/sketch/ns">
    <!-- Generator: Sketch 3.2.2 (9983) - http://www.bohemiancoding.com/sketch -->
    <title>Shape + Shape</title>
    <desc>Created with Sketch.</desc>
    <defs></defs>
    <g id="Viewer" stroke="none" stroke-width="1" fill="none" fill-rule="evenodd" sketch:type="MSPage">
        <g id="Desktop-HD" sketch:type="MSArtboardGroup" transform="translate(-275.000000, -219.000000)" fill="#CAC7C7">
            <g id="Knoppen_side" sketch:type="MSLayerGroup" transform="translate(15.800316, 82.463054)">
                <g id="Shape-+-LinkedIn-+-Shape-+-Shape-+-Shape" transform="translate(14.483623, 135.665025)" sketch:type="MSShapeGroup">
                    <g id="Shape-+-Shape" transform="translate(244.081400, 1.092540)">
                        <path d="M18.598131,0.464373399 L11.9090144,0.464373399 C8.92828475,0.464373399 6.86494777,1.12450345 5.00785759,2.67417044 C3.54732902,3.94702759 2.67570457,5.7969133 2.67570457,7.62280493 C2.67570457,10.4359655 4.79900374,13.4255704 8.73362485,13.4255704 C9.11193709,13.4255704 9.53080347,13.3863606 9.90042554,13.3515399 L9.84596712,13.4852631 C9.68780595,13.867998 9.53804529,14.2290798 9.53804529,14.7926483 C9.53804529,15.8899389 10.0620628,16.5667478 10.5686999,17.2210256 L10.6324279,17.3038345 L10.5191659,17.311735 C8.89439307,17.4240975 5.87021252,17.6333143 3.6611703,19.0050739 C1.0520904,20.5722975 0.84931967,22.8514433 0.84931967,23.5124512 C0.84931967,26.14273 3.27561624,28.797003 8.69654677,28.797003 C14.9998196,28.797003 18.2980303,25.2842099 18.2980303,21.8144305 C18.2988993,19.2479409 16.8091139,17.980936 15.2277919,16.6358039 L13.8938502,15.5876719 C13.4816462,15.2426837 12.9683466,14.8134236 12.9683466,14.0178148 C12.9683466,13.2359586 13.4816462,12.7197931 13.934694,12.2644906 L13.9819106,12.2162099 C15.4224518,11.0700532 17.0553355,9.77056847 17.0553355,6.95974877 C17.0553355,4.1337133 15.3068724,2.67329261 14.4665326,1.97131921 L16.6862927,1.97131921 C16.7135219,1.97131921 16.7404615,1.96371133 16.7633456,1.94878818 L18.6751839,0.734453202 C18.7296423,0.699632512 18.7551335,0.632624631 18.7371738,0.570005911 C18.7195038,0.507387192 18.662728,0.464373399 18.598131,0.464373399 L18.598131,0.464373399 Z M10.4864329,27.2485064 C6.64421735,27.2485064 4.06265633,25.4357823 4.06265633,22.7376177 C4.06265633,20.9758079 5.11851247,19.6956355 7.19807111,18.9345547 C8.86339811,18.3683527 11.0130575,18.3402621 11.0344932,18.3402621 C11.3986115,18.3402621 11.5816845,18.3402621 11.8725157,18.377131 C14.5609658,20.3098256 15.8534844,21.3246 15.8534844,23.2572946 C15.8531947,25.7193222 13.7965202,27.2485064 10.4864329,27.2485064 L10.4864329,27.2485064 Z M10.4502239,12.3900207 C7.22558999,12.3900207 5.8873032,8.10824631 5.8873032,5.81564039 C5.8873032,4.64987882 6.14974645,3.75507488 6.68969593,3.07943645 C7.27570333,2.33883842 8.27912875,1.8604197 9.24605544,1.8604197 C12.2067977,1.8604197 13.8440265,5.88030739 13.8440265,8.65864729 C13.8440265,9.09697833 13.8440265,10.4304059 12.9321376,11.3565192 C12.318901,11.9748059 11.3215587,12.3900207 10.4502239,12.3900207 L10.4502239,12.3900207 Z" id="Shape"></path>
                        <path d="M27.9733804,13.6971133 L24.4486458,13.6971133 L24.4486458,10.1492069 C24.4486458,10.0684463 24.3837592,10.0029015 24.3038096,10.0029015 L22.7873742,10.0029015 C22.7074246,10.0029015 22.642538,10.0684463 22.642538,10.1492069 L22.642538,13.6971133 L19.1357631,13.6971133 C19.0558135,13.6971133 18.9909269,13.7626581 18.9909269,13.8434187 L18.9909269,15.3954266 C18.9909269,15.4761872 19.0558135,15.541732 19.1357631,15.541732 L22.642538,15.541732 L22.642538,19.1124621 C22.642538,19.1932227 22.7074246,19.2587675 22.7873742,19.2587675 L24.3038096,19.2587675 C24.3837592,19.2587675 24.4486458,19.1932227 24.4486458,19.1124621 L24.4486458,15.5414394 L27.9733804,15.5414394 C28.05333,15.5414394 28.1182166,15.4758946 28.1182166,15.395134 L28.1182166,13.8434187 C28.1182166,13.7623655 28.0536196,13.6971133 27.9733804,13.6971133 L27.9733804,13.6971133 Z" id="Shape"></path>
                    </g>
                </g>
            </g>
        </g>
    </g>
</svg>