<?xml version="1.0" encoding="UTF-8" standalone="no"?>
<svg width="34px" height="34px" viewBox="0 0 34 34" version="1.1" xmlns="http://www.w3.org/2000/svg" xmlns:xlink="http://www.w3.org/1999/xlink" xmlns:sketch="http://www.bohemiancoding.com/sketch/ns">
    <!-- Generator: Sketch 3.2.2 (9983) - http://www.bohemiancoding.com/sketch -->
    <title>Google_plus</title>
    <desc>Created with Sketch.</desc>
    <defs></defs>
    <g id="Home" stroke="none" stroke-width="1" fill="none" fill-rule="evenodd" sketch:type="MSPage">
        <g id="Desktop-HD-2" sketch:type="MSArtboardGroup" transform="translate(-1067.000000, -34.000000)">
            <g id="Google_plus" sketch:type="MSLayerGroup" transform="translate(1067.500000, 34.171735)">
                <g id="Group" sketch:type="MSShapeGroup">
                    <path d="M31.8346063,0.0290080645 L1.0767874,0.0290080645 C0.511110236,0.0290080645 0.053007874,0.498193548 0.053007874,1.07702419 L0.053007874,31.8271694 C0.053007874,32.4070645 0.511110236,32.87625 1.0767874,32.87625 L31.8346063,32.87625 C32.4002835,32.87625 32.8583858,32.4067984 32.8583858,31.8271694 L32.8583858,1.07729032 C32.8583858,0.498193548 32.4000236,0.0290080645 31.8346063,0.0290080645 L31.8346063,0.0290080645 Z" id="Shape" fill="#E56147"></path>
                    <g transform="translate(5.716535, 5.056452)" id="Shape" fill="#FFFFFF">
                        <path d="M11.5575354,12.9990726 L10.5225827,12.1759355 C10.2073937,11.9082097 9.77631496,11.5547903 9.77631496,10.9078306 C9.77631496,10.2582097 10.2073937,9.84517742 10.5815669,9.46275 C11.7872362,8.49084677 12.9918661,7.45640323 12.9918661,5.27654032 C12.9918661,3.03493548 11.6147008,1.85571774 10.9547008,1.29631452 L12.7343622,1.29631452 L14.6023701,0.0942096774 L8.94325984,0.0942096774 C7.39044094,0.0942096774 5.15267717,0.470516129 3.51437008,1.85571774 C2.27959843,2.94684677 1.67728346,4.45127419 1.67728346,5.80560484 C1.67728346,8.10469355 3.4008189,10.4351855 6.44435433,10.4351855 C6.73174016,10.4351855 7.04614961,10.4061774 7.3626378,10.3761048 C7.22050394,10.7303226 7.07681102,11.0251935 7.07681102,11.5257823 C7.07681102,12.438871 7.53491339,12.9988065 7.93870866,13.5292016 C6.64547244,13.6202177 4.23127559,13.7668548 2.45161417,14.8872581 C0.756661417,15.9195726 0.240874016,17.4221371 0.240874016,18.4826613 C0.240874016,20.6654516 2.24971654,22.6986774 6.41525197,22.6986774 C11.3548583,22.6986774 13.9699134,19.8992661 13.9699134,17.1280645 C13.9701732,15.0919113 12.8216693,14.0896694 11.5575354,12.9990726 L11.5575354,12.9990726 Z M7.79527559,9.60912097 C5.32417323,9.60912097 4.20477165,6.33733065 4.20477165,4.36318548 C4.20477165,3.59460484 4.34690551,2.80100806 4.83566929,2.18119355 C5.29637008,1.59091935 6.09876378,1.20795968 6.84788976,1.20795968 C9.23012598,1.20795968 10.4656772,4.50902419 10.4656772,6.63220161 C10.4656772,7.16339516 10.4085118,8.10469355 9.74799213,8.78518548 C9.28599213,9.25729839 8.51296063,9.60912097 7.79527559,9.60912097 L7.79527559,9.60912097 Z M7.82359843,21.4633065 C4.75070079,21.4633065 2.76914173,19.9578145 2.76914173,17.8644435 C2.76914173,15.7716048 4.60648819,15.0637016 5.23868504,14.8292419 C6.44435433,14.4138145 7.99587402,14.3557984 8.25467717,14.3557984 C8.54180315,14.3557984 8.68549606,14.3557984 8.91415748,14.3853387 C11.0986535,15.9775887 12.0468189,16.7711855 12.0468189,18.2785403 C12.0468189,20.1039194 10.5815669,21.4633065 7.82359843,21.4633065 L7.82359843,21.4633065 Z"></path>
                        <path d="M18.8107795,9.56414516 L18.8107795,6.61676613 L17.3894409,6.61676613 L17.3894409,9.56414516 L14.5163622,9.56414516 L14.5163622,11.0361048 L17.3894409,11.0361048 L17.3894409,14.0015806 L18.8107795,14.0015806 L18.8107795,11.0361048 L21.6984094,11.0361048 L21.6984094,9.56414516 L18.8107795,9.56414516 Z"></path>
                    </g>
                </g>
            </g>
        </g>
    </g>
</svg>