<?xml version="1.0" encoding="UTF-8" standalone="no"?>
<svg width="35px" height="29px" viewBox="0 0 35 29" version="1.1" xmlns="http://www.w3.org/2000/svg" xmlns:xlink="http://www.w3.org/1999/xlink" xmlns:sketch="http://www.bohemiancoding.com/sketch/ns">
    <!-- Generator: Sketch 3.2.2 (9983) - http://www.bohemiancoding.com/sketch -->
    <title>Shape</title>
    <desc>Created with Sketch.</desc>
    <defs></defs>
    <g id="Viewer" stroke="none" stroke-width="1" fill="none" fill-rule="evenodd" sketch:type="MSPage">
        <g id="Desktop-HD" sketch:type="MSArtboardGroup" transform="translate(-98.000000, -219.000000)" fill="#CAC7C7">
            <g id="Knoppen_side" sketch:type="MSLayerGroup" transform="translate(15.800316, 82.463054)">
                <g id="Shape-+-LinkedIn-+-Shape-+-Shape-+-Shape" transform="translate(14.483623, 135.665025)" sketch:type="MSShapeGroup">
                    <g id="Shape-+-LinkedIn-+-Shape">
                        <path d="M102.4137,4.45319493 C101.164232,5.02350106 99.8235457,5.41026038 98.4149768,5.58288177 C99.8532444,4.69573892 100.954219,3.2885468 101.476069,1.61695989 C100.129018,2.43855032 98.6377173,3.03507741 97.0509559,3.35846939 C95.7823954,1.96220267 93.9728934,1.09254046 91.9703496,1.09254046 C88.1243624,1.09254046 85.0059944,4.30460943 85.0059944,8.26397607 C85.0059944,8.82554187 85.0675132,9.37399719 85.1863082,9.89841661 C79.3992961,9.59906052 74.2677776,6.74315975 70.8333301,2.40358902 C70.2329913,3.46116819 69.8914557,4.69355384 69.8914557,6.00897255 C69.8914557,8.49777973 71.1218322,10.6937861 72.9886103,11.9786137 C71.8473301,11.9392822 70.7739326,11.6158902 69.8341796,11.0783603 L69.8341796,11.1679486 C69.8341796,14.6422273 72.2355351,17.5418297 75.4196645,18.2017241 C74.8362964,18.3634201 74.2211081,18.4530084 73.5847065,18.4530084 C73.1349827,18.4530084 72.7001082,18.4071217 72.2737192,18.3219036 C73.1604388,21.1712491 75.7315013,23.2448909 78.7777438,23.3038881 C76.3954804,25.2267593 73.3916647,26.3717417 70.1290457,26.3717417 C69.5668909,26.3717417 69.0132215,26.3367804 68.4680374,26.2734131 C71.5503426,28.3099085 75.209652,29.4985925 79.1426141,29.4985925 C91.9512575,29.4985925 98.9559181,18.5688177 98.9559181,9.08993666 L98.9325834,8.16127727 C100.298726,7.15395496 101.482433,5.89097818 102.4137,4.45319493 L102.4137,4.45319493 Z" id="Shape"></path>
                    </g>
                </g>
            </g>
        </g>
    </g>
</svg>