<svg width="33" height="28" viewBox="0 0 33 28" xmlns="http://www.w3.org/2000/svg" xmlns:sketch="http://www.bohemiancoding.com/sketch/ns"><title>Twitter_bird_logo_2012</title><desc>Created with Sketch.</desc><path d="M32.906 3.523c-1.204.536-2.497.898-3.855 1.061 1.386-.834 2.45-2.154 2.951-3.728-1.297.772-2.733 1.333-4.262 1.635-1.224-1.31-2.969-2.128-4.899-2.128-3.707 0-6.712 3.017-6.712 6.738 0 .528.059 1.042.174 1.536-5.578-.281-10.524-2.963-13.834-7.04-.578.995-.909 2.152-.909 3.387 0 2.338 1.185 4.4 2.986 5.608-1.1-.035-2.135-.338-3.04-.843l-.001.085c0 3.264 2.314 5.988 5.384 6.607-.563.154-1.156.236-1.768.236-.432 0-.853-.042-1.263-.121.854 2.677 3.333 4.625 6.27 4.679-2.297 1.807-5.191 2.884-8.336 2.884-.542 0-1.076-.032-1.601-.094 2.97 1.912 6.498 3.027 10.289 3.027 12.345 0 19.097-10.267 19.097-19.171 0-.292-.007-.583-.019-.872 1.311-.95 2.449-2.136 3.349-3.488z" sketch:type="MSShapeGroup" fill="#2FB8E7"/></svg>