<svg width="33" height="33" viewBox="0 0 33 33" xmlns="http://www.w3.org/2000/svg" xmlns:sketch="http://www.bohemiancoding.com/sketch/ns"><title>LinkedIn_Logo</title><desc>Created with Sketch.</desc><g sketch:type="MSShapeGroup" fill="none"><path d="M.369 2.781c0-1.26 1.047-2.282 2.339-2.282h26.972c1.292 0 2.339 1.022 2.339 2.282v27.287c0 1.26-1.047 2.282-2.339 2.282h-26.972c-1.292 0-2.339-1.021-2.339-2.282v-27.287z" fill="#007AAA"/><path d="M9.963 27.161v-14.382h-4.78v14.382h4.78zm-2.39-16.346c1.667 0 2.705-1.104 2.705-2.485-.031-1.411-1.038-2.485-2.673-2.485s-2.704 1.074-2.704 2.485c0 1.38 1.037 2.485 2.642 2.485h.031z" fill="#fff"/><path d="M12.608 27.161h4.78v-8.032c0-.43.031-.859.157-1.167.346-.859 1.132-1.748 2.453-1.748 1.73 0 2.422 1.319 2.422 3.252v7.694h4.78v-8.247c0-4.418-2.358-6.473-5.504-6.473-2.579 0-3.711 1.441-4.34 2.423h.032v-2.086h-4.78c.063 1.35 0 14.382 0 14.382z" fill="#fff"/></g></svg>