<?xml version="1.0" encoding="UTF-8" standalone="no"?><svg width="33px" height="33px" viewBox="0 0 33 33" version="1.1" xmlns="http://www.w3.org/2000/svg" xmlns:xlink="http://www.w3.org/1999/xlink" xmlns:sketch="http://www.bohemiancoding.com/sketch/ns">    <!-- Generator: Sketch 3.2.2 (9983) - http://www.bohemiancoding.com/sketch -->    <title>LinkedIn_Logo</title>    <desc>Created with Sketch.</desc>    <defs></defs>    <g id="Home" stroke="none" stroke-width="1" fill="none" fill-rule="evenodd" sketch:type="MSPage">        <g id="Desktop-HD-2" sketch:type="MSArtboardGroup" transform="translate(-1027.000000, -34.000000)">            <g id="LinkedIn_Logo" sketch:type="MSLayerGroup" transform="translate(1027.000000, 34.171735)">                <g id="layer1" transform="translate(0.187148, 0.015761)" sketch:type="MSShapeGroup">                    <g id="g3019" transform="translate(16.158821, 16.317124) scale(1, -1) translate(-16.158821, -16.317124) translate(0.076542, 0.234845)">                        <path d="M0.105276326,29.8063384 C0.105276326,31.0660729 1.15238803,32.0879048 2.44412654,32.0879048 L29.4160625,32.0879048 C30.7077584,32.0879048 31.7549127,31.0660729 31.7549127,29.8063384 L31.7549127,2.51904331 C31.7549127,1.25888328 30.7077584,0.237476967 29.4160625,0.237476967 L2.44412654,0.237476967 C1.15238803,0.237476967 0.105276326,1.25888328 0.105276326,2.51904331 L0.105276326,29.8063384 L0.105276326,29.8063384 Z" id="path14" fill="#007AAA"></path>                        <path d="M9.69926067,5.42579543 L9.69926067,19.8080474 L4.91886635,19.8080474 L4.91886635,5.42579543 L9.69926067,5.42579543 L9.69926067,5.42579543 Z M7.30904223,21.7717011 C8.97606244,21.7717011 10.013641,22.8760966 10.013641,24.2562719 C9.98257324,25.667515 8.97606244,26.7412683 7.34066327,26.7412683 C5.70543432,26.7412683 4.63627727,25.667515 4.63627727,24.2562719 C4.63627727,22.8760966 5.67364305,21.7717011 7.27788934,21.7717011 L7.30895711,21.7717011 L7.30904223,21.7717011 Z" id="path28" fill="#FFFFFF"></path>                        <path d="M12.3444051,5.42579543 L17.1247569,5.42579543 L17.1247569,13.4574537 C17.1247569,13.8872955 17.1558246,14.3167118 17.2820534,14.6239848 C17.6276292,15.4828173 18.4141972,16.372292 19.7347904,16.372292 C21.4645846,16.372292 22.1565448,15.0534011 22.1565448,13.119964 L22.1565448,5.42579543 L26.9365135,5.42579543 L26.9365135,13.6723746 C26.9365135,18.0899569 24.5781289,20.1455371 21.4330061,20.1455371 C18.8541254,20.1455371 17.7219816,18.7040774 17.0929656,17.7222506 L17.1248845,17.7222506 L17.1248845,19.8080474 L12.3445328,19.8080474 C12.4072641,18.4585143 12.3445328,5.42579543 12.3445328,5.42579543 L12.3444051,5.42579543 Z" id="path30" fill="#FFFFFF"></path>                    </g>                </g>            </g>        </g>    </g></svg>