<svg width="34" height="34" viewBox="0 0 34 34" xmlns="http://www.w3.org/2000/svg" xmlns:sketch="http://www.bohemiancoding.com/sketch/ns"><title>Google_plus</title><desc>Created with Sketch.</desc><g sketch:type="MSShapeGroup" fill="none"><path d="M32.335.201h-30.758c-.566 0-1.024.469-1.024 1.048v30.75c0 .58.458 1.049 1.024 1.049h30.758c.566 0 1.024-.469 1.024-1.049v-30.75c0-.579-.458-1.048-1.024-1.048z" id="Shape" fill="#E56147"/><g fill="#fff"><path d="M17.775 18.227l-1.035-.823c-.315-.268-.746-.621-.746-1.268 0-.65.431-1.063.805-1.445 1.206-.972 2.41-2.006 2.41-4.186 0-2.242-1.377-3.421-2.037-3.98h1.78l1.868-1.202h-5.659c-1.553 0-3.791.376-5.429 1.762-1.235 1.091-1.837 2.596-1.837 3.95 0 2.299 1.724 4.63 4.767 4.63.287 0 .602-.029.918-.059-.142.354-.286.649-.286 1.15 0 .913.458 1.473.862 2.003-1.293.091-3.707.238-5.487 1.358-1.695 1.032-2.211 2.535-2.211 3.595 0 2.183 2.009 4.216 6.174 4.216 4.94 0 7.555-2.799 7.555-5.571 0-2.036-1.148-3.038-2.412-4.129zm-3.762-3.39c-2.471 0-3.591-3.272-3.591-5.246 0-.769.142-1.562.631-2.182.461-.59 1.263-.973 2.012-.973 2.382 0 3.618 3.301 3.618 5.424 0 .531-.057 1.472-.718 2.153-.462.472-1.235.824-1.953.824zm.028 11.854c-3.073 0-5.054-1.505-5.054-3.599 0-2.093 1.837-2.801 2.47-3.035 1.206-.415 2.757-.473 3.016-.473.287 0 .431 0 .659.03 2.184 1.592 3.133 2.386 3.133 3.893 0 1.825-1.465 3.185-4.223 3.185zM25.028 14.792v-2.947h-1.421v2.947h-2.873v1.472h2.873v2.965h1.421v-2.965h2.888v-1.472h-2.888z"/></g></g></svg>