<?xml version="1.0" encoding="UTF-8" standalone="no"?>
<svg width="33px" height="28px" viewBox="0 0 33 28" version="1.1" xmlns="http://www.w3.org/2000/svg" xmlns:xlink="http://www.w3.org/1999/xlink" xmlns:sketch="http://www.bohemiancoding.com/sketch/ns">
    <!-- Generator: Sketch 3.2.2 (9983) - http://www.bohemiancoding.com/sketch -->
    <title>Twitter_bird_logo_2012</title>
    <desc>Created with Sketch.</desc>
    <defs></defs>
    <g id="Home" stroke="none" stroke-width="1" fill="none" fill-rule="evenodd" sketch:type="MSPage">
        <g id="Desktop-HD-2" sketch:type="MSArtboardGroup" transform="translate(-988.000000, -37.000000)" fill="#2FB8E7">
            <g id="Twitter_bird_logo_2012" sketch:type="MSLayerGroup" transform="translate(988.000000, 37.171735)">
                <g id="layer1" transform="translate(0.129610, 0.132637)" sketch:type="MSShapeGroup">
                    <path d="M32.7760445,3.2182066 C31.5724601,3.75417957 30.2787475,4.11625723 28.9212401,4.27915149 C30.3068834,3.4453034 31.3712631,2.12491149 31.8722927,0.551475957 C30.5753088,1.32374298 29.138958,1.88434723 27.6100261,2.18649064 C26.385831,0.876935106 24.6414701,0.0588523404 22.7109605,0.0588523404 C19.0043566,0.0588523404 15.9989971,3.07550872 15.9989971,6.7964534 C15.9989971,7.32454468 16.0583742,7.83884298 16.1728765,8.33195872 C10.5946481,8.05099979 5.64912884,5.36850383 2.33870237,1.29205149 C1.7609563,2.28714894 1.42988046,3.44448383 1.42988046,4.67932596 C1.42988046,7.01698404 2.61481699,9.07926702 4.41577387,10.2875055 C3.31557104,10.25253 2.28063382,9.94940234 1.37573757,9.4447934 C1.37497457,9.47287149 1.37497457,9.50111426 1.37497457,9.52952362 C1.37497457,12.7939711 3.68857786,15.5170245 6.75903902,16.136416 C6.1958511,16.2904423 5.6028926,16.37271 4.9907941,16.37271 C4.55830335,16.37271 4.13791769,16.3303449 3.72799855,16.2518534 C4.58218543,18.9286009 7.06083451,20.8765953 9.99798329,20.930783 C7.70090289,22.7380519 4.80693832,23.8152543 1.66221191,23.8152543 C1.1204511,23.8152543 0.586217341,23.7832334 0.0611415607,23.7209974 C3.03149636,25.6328674 6.55947676,26.7483294 10.349832,26.7483294 C22.6953113,26.7483294 29.4465333,16.4815813 29.4465333,7.5775883 C29.4465333,7.28546362 29.4399905,6.99498 29.427069,6.70581191 C30.738283,5.75603426 31.8761097,4.56946851 32.7759357,3.2182066 L32.7760445,3.2182066 Z" id="path5"></path>
                </g>
            </g>
        </g>
    </g>
</svg>