<svg width="57" height="42" viewBox="0 0 57 42" xmlns="http://www.w3.org/2000/svg" xmlns:sketch="http://www.bohemiancoding.com/sketch/ns"><title>Fill 1 + Fill 2</title><desc>Created with Sketch.</desc><g sketch:type="MSShapeGroup" fill="#EB1D25"><path d="M18.576 32.652l-.356.011c-2.983 0-4.064 1.958-4.765.945-.704-1.013 1.448-3.274 4.137-3.108-2.569-6.508-2.349-12.368-1.102-19.464-9.156-1.46-16.237-10.396-16.237.057 0 11.341 8.329 30.864 18.606 30.864 1.544 0 3.044-.449 4.478-1.242-1.669-1.081-3.67-5.993-4.763-8.064zm-10.025-12.515c-2.828-1.103-4.722-3.054-4.229-4.362.499-1.304 3.198-1.465 6.032-.364 2.829 1.101 4.722 3.059 4.22 4.359-.493 1.305-3.194 1.469-6.023.368z"/><path d="M38.295 10.853c-9.693-3.451-13.769-17.075-17.498-6.386-3.727 10.693-2.295 31.911 7.395 35.36 9.694 3.449 23.965-12.164 27.697-22.855 3.727-10.696-7.901-2.666-17.594-6.119zm-15.227-.519c.973-1.143 3.776-.336 6.258 1.808 2.487 2.149 3.719 4.815 2.752 5.962-.967 1.145-3.768.333-6.253-1.812-2.486-2.145-3.718-4.814-2.757-5.958zm12.969 23.437c-.412 1.194-3.039 1.344-5.852.337-2.814-1.004-4.767-2.782-4.343-3.969.41-1.191 2.231.954 5.046 1.958 2.814 1.004 5.567.485 5.149 1.674zm8.635-10.749c-3.268.119-5.961-1.002-6.014-2.51-.055-1.506 2.558-2.822 5.818-2.939 3.264-.122 5.958 1.002 6.014 2.508.055 1.505-2.554 2.823-5.818 2.941z"/></g></svg>