<svg width="11" height="11" viewBox="0 0 11 11" xmlns="http://www.w3.org/2000/svg" xmlns:sketch="http://www.bohemiancoding.com/sketch/ns"><title>arroba</title><desc>Created with Sketch.</desc><path d="M7.22 2.841h.81l-.555 3.207c-.062.371-.064.639-.006.805.058.165.187.248.388.248.2 0 .397-.047.59-.142.193-.095.366-.24.521-.438.154-.197.28-.446.376-.745.096-.3.145-.655.145-1.065 0-.592-.097-1.097-.289-1.515-.193-.418-.457-.764-.792-1.035-.336-.272-.731-.472-1.186-.598-.455-.126-.945-.19-1.47-.19-.602 0-1.161.111-1.678.332-.517.221-.966.525-1.348.911-.382.387-.681.846-.897 1.379-.216.532-.324 1.11-.324 1.733 0 .615.09 1.168.272 1.657.181.489.446.905.793 1.249.347.343.777.607 1.29.793.513.185 1.101.278 1.765.278.223 0 .478-.027.763-.083.286-.055.544-.138.775-.249l.359 1.136c-.316.158-.638.268-.966.331-.328.063-.704.095-1.128.095-.748 0-1.441-.111-2.077-.331-.637-.221-1.188-.549-1.654-.982-.467-.434-.831-.973-1.094-1.615-.262-.643-.393-1.386-.393-2.231 0-.86.15-1.637.451-2.332.301-.694.706-1.286 1.215-1.775.509-.489 1.099-.865 1.77-1.13.671-.264 1.381-.396 2.129-.396.71 0 1.369.105 1.979.314.609.209 1.138.509 1.585.9.447.39.799.868 1.053 1.432.254.564.382 1.205.382 1.923 0 .505-.087.978-.26 1.42-.174.442-.413.825-.717 1.148-.305.323-.66.579-1.065.769-.405.189-.839.284-1.302.284-.193 0-.372-.021-.538-.065-.166-.043-.305-.117-.416-.219-.112-.103-.195-.237-.249-.402-.054-.165-.07-.37-.046-.615h-.046c-.116.166-.241.327-.376.485-.135.158-.284.298-.446.42-.162.122-.34.219-.532.29-.193.071-.405.107-.637.107-.185 0-.363-.042-.532-.124-.17-.083-.317-.2-.44-.349-.124-.15-.222-.331-.295-.545-.074-.213-.11-.45-.11-.71 0-.489.077-.965.231-1.426.154-.462.365-.87.631-1.225.266-.355.575-.641.926-.858.351-.217.723-.325 1.116-.325.27 0 .498.041.683.124.185.083.355.192.509.326l.358-.379zm-.729 1.432c-.1-.087-.204-.154-.312-.201-.108-.048-.243-.071-.405-.071-.231 0-.445.067-.642.201s-.367.307-.509.521c-.143.213-.253.452-.33.716-.077.265-.116.523-.116.775 0 .26.052.474.156.639.104.165.283.248.538.248.108 0 .224-.034.347-.1.124-.067.243-.156.359-.266.116-.11.227-.237.335-.379.108-.142.204-.292.289-.45l.289-1.633z" sketch:type="MSShapeGroup" fill="#000"/></svg>