<svg width="36" height="42" viewBox="0 0 36 42" xmlns="http://www.w3.org/2000/svg" xmlns:sketch="http://www.bohemiancoding.com/sketch/ns"><title>Fill 11 + Fill 12 + Fill 13</title><desc>Created with Sketch.</desc><g sketch:type="MSShapeGroup" fill="#EC1D25"><path d="M12.702 8.536c1.805 0 3.268 1.478 3.268 3.302 0 1.826-1.463 3.303-3.268 3.303-1.804 0-3.269-1.477-3.269-3.303 0-1.824 1.465-3.302 3.269-3.302"/><path d="M19.808 22.022c1.157 0 2.094.947 2.094 2.118 0 1.17-.937 2.119-2.094 2.119-1.16 0-2.097-.949-2.097-2.119 0-1.171.937-2.118 2.097-2.118"/><path d="M31.601 17.919c2.631-13.031-7.839-18.992-19.467-17.117-11.625 1.875-11.189 8.983-11.873 12.376-1.361 8.499 7.297 17.999 7.297 17.999l-.494 9.879h14.1l1.079-4.544s.611 1.039 4.253 1.352c3.646.312 3.201-4.186 3.201-4.186s2.426-1.081 2.426-1.89c0-.811-1.437-1.86-1.437-1.86s1.547.282 2.103-.376c.554-.658-.682-3.029-.682-3.029s1.905-.049 3.023-1.296c1.122-1.244-3.528-4.934-3.528-7.307zm-20.136 1.782l-.119-1.32c-.351-.094-.688-.219-1.013-.365l-1.151.986-.196.109c-.065.035-1.286-.109-1.286-.109l-2.102-2.508v-1.496l1.211-1.038c-.086-.335-.139-.678-.163-1.031l-1.587-.733-.425-1.247.049-.205 1.356-2.983 1.434-.383 1.368.631c.276-.228.579-.433.895-.615l-.134-1.669 1.048-1.058 3.238-.265 1.048 1.059.1 1.268c.424.114.824.268 1.207.455l1.054-.913h1.484l2.114 2.494v1.497l-1.287 1.115c.062.303.097.614.111.929l1.624.95.378 1.448-1.625 2.843-1.434.38-1.265-.735c-.237.188-.491.352-.755.506l.152 1.702-1.049 1.061-3.233.296-1.05-1.057zm13.192 8.369l-.921.244-.81-.472c-.153.12-.315.225-.486.322l.098 1.093-.671.679-2.076.192-.671-.679-.076-.847c-.225-.061-.439-.144-.649-.237l-.739.633-.125.069c-.041.024-.826-.069-.826-.069l-1.347-1.611v-.96l.776-.664c-.055-.216-.088-.436-.104-.663l-1.018-.469-.271-.8.03-.132.869-1.914.92-.245.878.406c.177-.146.371-.279.574-.395l-.084-1.071.671-.68 2.077-.17.672.681.065.811c.271.074.526.173.773.293l.674-.587h.954l1.358 1.602v.959l-.826.717c.041.196.062.394.07.596l1.044.609.239.93-1.044 1.826z"/></g></svg>