<svg width="31" height="44" viewBox="0 0 31 44" xmlns="http://www.w3.org/2000/svg" xmlns:sketch="http://www.bohemiancoding.com/sketch/ns"><title>Fill 3</title><desc>Created with Sketch.</desc><path d="M12.836 4.575c0-2.519 2.02-4.56 4.512-4.56 2.492 0 4.512 2.042 4.512 4.56 0 2.519-2.02 4.561-4.512 4.561-2.492 0-4.512-2.043-4.512-4.561zm-5.775 15.506c.542-1.642 3.249-10.945 3.249-10.945-1.623 0-3.969-.185-6.135 1.64-2.165 1.824-3.61 4.927-3.97 7.296-.362 2.192 1.263 2.921 3.068 3.467 1.802.548 3.428-.181 3.787-1.458zm23.634-6.289c-.315-.638-.954-.989-1.616-.99v-1.843h-1.805v2.521l-5.038 2.548-4.494-4.694-.031-.023c-.259-.321-.736-.599-1.085-.717l-4.512-1.093-3.428 11.858c-.361 2.189-.361 3.829 1.805 5.654l5.956 4.958v10c0 1.009.806 1.824 1.804 1.824.999 0 1.805-.815 1.805-1.824v-10.945c0-.484-.188-.947-.529-1.289l-.283-.287-4.242-5.539 1.955-8.151 3.607 3.764c.349.366.82.558 1.297.558.275 0 .551-.065.807-.192l4.608-2.33v26.235h1.805v-27.147l.807-.409c.89-.45 1.255-1.545.81-2.447zm-22.37 12.855l-.903 5.838v.015l-3.479 8.793c-.372.937.078 1.999 1.004 2.374.219.089.447.128.671.128.715 0 1.392-.431 1.676-1.147l3.476-8.786c.118-.189.214-.4.263-.646l.722-2.553c-2.347-2.008-3.431-2.739-3.431-4.016z" sketch:type="MSShapeGroup" fill="#EC1D25"/></svg>