<svg width="11" height="12" viewBox="0 0 11 12" xmlns="http://www.w3.org/2000/svg" xmlns:sketch="http://www.bohemiancoding.com/sketch/ns"><title>phone16</title><desc>Created with Sketch.</desc><path d="M11.001 9.246c.023.183-.03.342-.16.477l-1.516 1.573c-.068.079-.158.147-.268.203-.11.056-.218.091-.325.107l-.068.006-.148.006c-.144 0-.378-.026-.701-.077-.323-.052-.718-.179-1.186-.381-.467-.203-.998-.507-1.59-.912-.593-.405-1.224-.961-1.893-1.669-.532-.548-.973-1.073-1.323-1.573-.35-.501-.631-.963-.844-1.389-.213-.425-.372-.811-.479-1.156-.106-.346-.179-.644-.217-.894-.038-.25-.053-.447-.046-.59l.011-.238c.015-.111.049-.224.103-.34.053-.115.118-.209.194-.28l1.516-1.585c.106-.111.228-.167.365-.167.099 0 .186.03.262.089.076.06.141.133.194.221l1.22 2.42c.068.127.087.266.057.417-.03.151-.095.278-.194.381l-.559.584-.04.077-.017.089c.03.167.099.358.205.572.091.191.232.423.422.697.19.274.46.59.809.948.342.366.646.65.912.852.266.203.488.352.667.447.179.095.315.153.41.173l.142.03.074-.018.074-.042.65-.691c.137-.127.296-.191.479-.191.129 0 .232.024.308.072h.011l2.2 1.359c.16.103.255.234.285.393z" sketch:type="MSShapeGroup" fill="#000"/></svg>