<?xml version="1.0" encoding="UTF-8" standalone="no"?>
<svg width="30px" height="41px" viewBox="0 0 30 41" version="1.1" xmlns="http://www.w3.org/2000/svg" xmlns:xlink="http://www.w3.org/1999/xlink" xmlns:sketch="http://www.bohemiancoding.com/sketch/ns">
    <!-- Generator: Sketch 3.2.2 (9983) - http://www.bohemiancoding.com/sketch -->
    <title>Fill 10</title>
    <desc>Created with Sketch.</desc>
    <defs></defs>
    <g id="Viewer" stroke="none" stroke-width="1" fill="none" fill-rule="evenodd" sketch:type="MSPage">
        <g id="Desktop-HD" sketch:type="MSArtboardGroup" transform="translate(-225.000000, -469.000000)" fill="#EC1D25">
            <g id="Knoppen_side" sketch:type="MSLayerGroup" transform="translate(15.800316, 82.463054)">
                <path d="M238.686787,393.552692 C237.208355,393.459293 230.048201,392.944585 224.08626,387.072649 L224.08626,387.0493 C224.081238,387.05336 224.07923,387.057421 224.074208,387.060467 C224.071195,387.057421 224.066173,387.05336 224.062155,387.0493 C224.062155,387.037117 224.062155,387.048284 224.062155,387.072649 C218.09921,392.944585 210.941065,393.459293 209.461628,393.552692 C208.812805,402.910837 211.314691,415.077033 211.314691,415.077033 C211.314691,415.077033 216.483179,423.565148 224.055125,427.270641 C224.055125,427.275717 224.057134,427.285869 224.058138,427.288914 C224.06316,427.285869 224.069186,427.282823 224.074208,427.280793 C224.080234,427.282823 224.084252,427.285869 224.090278,427.288914 C224.090278,427.284853 224.092286,427.274701 224.093291,427.270641 C231.665237,423.565148 236.834729,415.077033 236.834729,415.077033 C236.834729,415.077033 239.333602,402.910837 238.686787,393.552692 L238.686787,393.552692 Z M221.216775,413.156269 L223.20141,405.905686 C221.947956,405.35037 221.145465,404.111822 221.145465,402.722009 C221.145465,400.807335 222.686168,399.250013 224.581415,399.250013 C226.473648,399.250013 228.015356,400.807335 228.015356,402.722009 C228.015356,403.950405 227.37055,405.089463 226.325001,405.713813 L228.237322,413.156269 L221.216775,413.156269 L221.216775,413.156269 Z" id="Fill-10" sketch:type="MSShapeGroup"></path>
            </g>
        </g>
    </g>
</svg>