<svg width="30" height="41" viewBox="0 0 30 41" xmlns="http://www.w3.org/2000/svg" xmlns:sketch="http://www.bohemiancoding.com/sketch/ns"><title>Fill 10</title><desc>Created with Sketch.</desc><path d="M29.487 7.016c-1.478-.093-8.639-.608-14.601-6.48v-.023l-.012.011-.012-.011v.023c-5.963 5.872-13.121 6.387-14.601 6.48-.649 9.358 1.853 21.524 1.853 21.524s5.168 8.488 12.74 12.194l.003.018.016-.008.016.008.003-.018c7.572-3.705 12.741-12.194 12.741-12.194s2.499-12.166 1.852-21.524zm-17.47 19.604l1.985-7.251c-1.253-.555-2.056-1.794-2.056-3.184 0-1.915 1.541-3.472 3.436-3.472 1.892 0 3.434 1.557 3.434 3.472 0 1.228-.645 2.367-1.69 2.992l1.912 7.442h-7.021z" sketch:type="MSShapeGroup" fill="#EC1D25"/></svg>