<svg width="28" height="47" viewBox="0 0 28 47" xmlns="http://www.w3.org/2000/svg" xmlns:sketch="http://www.bohemiancoding.com/sketch/ns"><title>Fill 6</title><desc>Created with Sketch.</desc><path d="M17.582 42.09c0-.638-.117-1.242-.348-1.811-.234-.573-.565-1.067-.997-1.486-.431-.418-.929-.755-1.495-1.007-.563-.252-1.162-.377-1.793-.377s-1.228.125-1.793.377-1.055.589-1.469 1.007c-.415.419-.739.914-.971 1.486-.233.57-.349 1.174-.349 1.811 0 .638.116 1.243.349 1.812.232.572.556 1.067.971 1.486.415.419.904.754 1.469 1.006.564.252 1.162.379 1.793.379s1.229-.127 1.793-.379c.565-.252 1.064-.587 1.495-1.006.432-.419.763-.915.997-1.486.231-.57.348-1.175.348-1.812zm-4.283-6.745h-.399c-1.063-.136-1.935-.622-2.615-1.461-.681-.839-.971-1.795-.872-2.87.2-1.845.656-3.633 1.37-5.361.714-1.729 1.635-3.265 2.765-4.607.365-.47.763-.897 1.194-1.284.432-.386.864-.762 1.295-1.132 1.097-.941 1.935-1.779 2.516-2.519.582-.738.872-1.644.872-2.718 0-.94-.19-1.712-.572-2.317-.383-.603-.848-1.081-1.395-1.434-.548-.351-1.121-.603-1.718-.755-.598-.151-1.13-.226-1.594-.226h-.099c-.93 0-1.694.126-2.29.379-.599.252-1.105.603-1.521 1.057-.415.453-.763.998-1.046 1.635-.282.639-.572 1.326-.872 2.065-.399 1.04-.88 1.769-1.445 2.189-.563.42-1.128.664-1.692.731-.632.135-1.28.083-1.942-.151-.665-.269-1.195-.654-1.595-1.157-.365-.437-.647-.999-.847-1.687-.199-.688-.132-1.535.2-2.542.2-.638.548-1.552 1.047-2.744.497-1.192 1.253-2.357 2.266-3.498 1.012-1.142 2.315-2.133 3.91-2.97 1.593-.84 3.586-1.243 5.977-1.209 1.593.034 3.163.328 4.706.88 1.544.555 2.931 1.368 4.159 2.444 1.229 1.073 2.225 2.391 2.989 3.95.763 1.561 1.146 3.348 1.146 5.363 0 1.476-.2 2.786-.599 3.928-.399 1.14-.904 2.164-1.519 3.07-.615.906-1.279 1.694-1.993 2.366-.714.671-1.37 1.275-1.968 1.812-.331.302-.648.58-.946.831-.299.252-.531.494-.698.729-.597.739-1.104 1.604-1.519 2.593-.416.992-.672 2.022-.772 3.097-.1 1.04-.522 1.887-1.27 2.543-.747.653-1.618.982-2.614.982z" sketch:type="MSShapeGroup" fill="#EC1D25"/></svg>