<?xml version="1.0" encoding="UTF-8" standalone="no"?>
<svg width="28px" height="47px" viewBox="0 0 28 47" version="1.1" xmlns="http://www.w3.org/2000/svg" xmlns:xlink="http://www.w3.org/1999/xlink" xmlns:sketch="http://www.bohemiancoding.com/sketch/ns">
    <!-- Generator: Sketch 3.2.2 (9983) - http://www.bohemiancoding.com/sketch -->
    <title>Fill 6</title>
    <desc>Created with Sketch.</desc>
    <defs></defs>
    <g id="Viewer" stroke="none" stroke-width="1" fill="none" fill-rule="evenodd" sketch:type="MSPage">
        <g id="Desktop-HD" sketch:type="MSArtboardGroup" transform="translate(-77.000000, -369.000000)" fill="#EC1D25">
            <g id="Knoppen_side" sketch:type="MSLayerGroup" transform="translate(15.800316, 82.463054)">
                <path d="M78.7821533,328.626572 C78.7821533,327.989025 78.6656464,327.384979 78.4346412,326.81545 C78.200623,326.242875 77.8691809,325.748471 77.4373018,325.329192 C77.006427,324.910928 76.5082595,324.573881 75.9427992,324.32211 C75.3793476,324.07034 74.780743,323.94547 74.1499987,323.94547 C73.5192543,323.94547 72.9216541,324.07034 72.3571981,324.32211 C71.7917378,324.573881 71.3026096,324.910928 70.8878048,325.329192 C70.4729999,325.748471 70.1485884,326.242875 69.9165789,326.81545 C69.6835651,327.384979 69.5680625,327.989025 69.5680625,328.626572 C69.5680625,329.26412 69.6835651,329.869181 69.9165789,330.43871 C70.1485884,331.01027 70.4729999,331.505689 70.8878048,331.924968 C71.3026096,332.344247 71.7917378,332.679264 72.3571981,332.931035 C72.9216541,333.182805 73.5192543,333.309705 74.1499987,333.309705 C74.780743,333.309705 75.3793476,333.182805 75.9427992,332.931035 C76.5082595,332.679264 77.006427,332.344247 77.4373018,331.924968 C77.8691809,331.505689 78.200623,331.01027 78.4346412,330.43871 C78.6656464,329.869181 78.7821533,329.26412 78.7821533,328.626572 L78.7821533,328.626572 Z M74.4995194,321.881562 L74.1007845,321.881562 C73.038161,321.745524 72.1653635,321.259242 71.4854049,320.420684 C70.8044421,319.582126 70.5141791,318.625804 70.6136118,317.550704 C70.8134814,315.70608 71.2694654,313.917291 71.9835725,312.189415 C72.6976796,310.460524 73.6186869,308.924521 74.7486032,307.582423 C75.1131895,307.112383 75.5119244,306.684983 75.9427992,306.29819 C76.3746783,305.912413 76.8065574,305.535773 77.2374322,305.166239 C78.3342042,304.225145 79.1728532,303.387602 79.7533791,302.647519 C80.3349094,301.909466 80.6251723,301.003905 80.6251723,299.92982 C80.6251723,298.989742 80.4353464,298.218187 80.0526814,297.613126 C79.6700164,297.010095 79.2049931,296.531934 78.6576114,296.178643 C78.1092253,295.827383 77.5367344,295.575613 76.9391343,295.423332 C76.3415341,295.272067 75.809218,295.196942 75.345199,295.196942 L75.2457664,295.196942 C74.3157197,295.196942 73.5513941,295.322827 72.9558027,295.575613 C72.3571981,295.827383 71.8509956,296.178643 71.4351864,296.632439 C71.0203816,297.08522 70.6718652,297.630384 70.3896372,298.267932 C70.1074093,298.906495 69.8171463,299.593788 69.517844,300.332856 C69.1191091,301.372424 68.6380159,302.102355 68.0725556,302.521634 C67.509104,302.941928 66.944648,303.185577 66.380192,303.25258 C65.7484433,303.387602 65.1006246,303.335827 64.4377404,303.101315 C63.7728474,302.832286 63.24254,302.447524 62.8428008,301.943983 C62.4782144,301.507446 62.1959865,300.945023 61.9961168,300.256715 C61.7972516,299.568407 61.8645443,298.721728 62.1959865,297.714646 C62.3958561,297.077098 62.7443725,296.1624 63.24254,294.970552 C63.7397032,293.778703 64.4959938,292.613249 65.5083988,291.472161 C66.5208038,290.330057 67.8234718,289.339219 69.4184114,288.501676 C71.0113423,287.662103 73.0040124,287.259067 75.3954175,287.292569 C76.9883484,287.32607 78.5581788,287.620479 80.1018955,288.17275 C81.6456123,288.728066 83.0326473,289.541244 84.2609918,290.616344 C85.4903408,291.689414 86.4856715,293.007148 87.2499971,294.566501 C88.0133183,296.127883 88.3959833,297.914641 88.3959833,299.92982 C88.3959833,301.405925 88.1961136,302.715538 87.7973787,303.857642 C87.3986438,304.997715 86.8934457,306.022055 86.2787712,306.927616 C85.6640968,307.833178 85.0002082,308.621991 84.2861011,309.294055 C83.571994,309.965105 82.9161404,310.569151 82.3185402,311.106193 C81.9870981,311.407709 81.6707215,311.685874 81.3724236,311.937645 C81.0731213,312.189415 80.8411119,312.432049 80.6743864,312.666561 C80.0777906,313.405629 79.5705838,314.270582 79.1557789,315.25939 C78.7399697,316.251244 78.4838554,317.281675 78.3834184,318.356776 C78.2829814,319.396344 77.8611459,320.244039 77.1138946,320.89986 C76.3666433,321.552636 75.4958545,321.881562 74.4995194,321.881562 L74.4995194,321.881562 Z" id="Fill-6" sketch:type="MSShapeGroup"></path>
            </g>
        </g>
    </g>
</svg>