<svg width="45" height="44" viewBox="0 0 45 44" xmlns="http://www.w3.org/2000/svg" xmlns:sketch="http://www.bohemiancoding.com/sketch/ns"><title>Fill 8 + Fill 9</title><desc>Created with Sketch.</desc><g sketch:type="MSShapeGroup" fill="#EC1D25"><path d="M32.399 26.923c-.681 1.111-1.426 2.269-2.231 3.471 6.777 1.024 10.246 3.218 10.246 4.311 0 1.453-6.147 4.862-18.069 4.862-11.922 0-18.069-3.409-18.069-4.862 0-1.092 3.468-3.286 10.246-4.311-.805-1.202-1.549-2.36-2.23-3.471-6.689 1.275-11.794 3.896-11.794 7.782 0 5.698 10.992 8.68 21.847 8.68 10.857 0 21.847-2.982 21.847-8.68 0-3.885-5.104-6.506-11.793-7.782"/><path d="M22.345 34.341c.984 0 1.907-.472 2.488-1.274 3.717-5.127 10.289-14.916 10.289-20.033 0-7.133-5.718-12.915-12.777-12.915-7.057 0-12.776 5.783-12.776 12.915 0 5.116 6.572 14.906 10.289 20.033.583.802 1.507 1.274 2.487 1.274zm-5.315-21.562c0-2.966 2.379-5.371 5.315-5.371 2.935 0 5.315 2.405 5.315 5.371 0 2.966-2.38 5.371-5.315 5.371-2.936.001-5.315-2.404-5.315-5.371z"/></g></svg>