<svg width="54" height="46" viewBox="0 0 54 46" xmlns="http://www.w3.org/2000/svg" xmlns:sketch="http://www.bohemiancoding.com/sketch/ns"><title>Fill 7</title><desc>Created with Sketch.</desc><path d="M45.804 13.388c-7.017-7.091-14.636 0-14.636 0v1.207h-1.789v-1.243c2.478-.998 4.235-3.435 4.235-6.301 0-3.754-3.01-6.79-6.721-6.79-3.714 0-6.72 3.035-6.72 6.79 0 2.797 1.67 5.189 4.057 6.235v1.309h-1.611v-1.207s-7.618-7.091-14.633 0c0 0-4.48 3.025-7.468 0 0 0 .299 9.058 11.051 9.058 0 0 4.738.911 11.05-2.032v-1.816h1.611v1.657h1.169l.316 6.399c-3.663-.182-6.476-1.094-6.472-2.187.006-.936 2.05-1.704 4.912-2.008l.002-.371c-3.533.319-6.1 1.243-6.108 2.363-.006 1.038 2.148 1.934 5.235 2.354-2.318.382-3.893 1.081-3.893 1.904 0 .884 1.795 1.63 4.379 1.989-2.127.322-3.582.959-3.59 1.702-.006.806 1.648 1.501 4.026 1.831-1.902.294-3.202.865-3.202 1.529 0 .692 1.393 1.278 3.402 1.564-1.477.248-2.484.705-2.484 1.226 0 .606 1.292 1.121 3.116 1.334-1.136.2-1.913.546-1.913.958 0 .566 1.448 1.039 3.348 1.125l.153 3.089h.977l.104-3.089c1.917-.082 3.387-.547 3.387-1.125 0-.437-.824-.798-2.057-.99 1.7-.228 2.89-.72 2.89-1.303 0-.507-.891-.946-2.273-1.202 2.097-.275 3.558-.88 3.558-1.593 0-.656-1.215-1.222-3.068-1.522 2.292-.306 3.889-.971 3.893-1.752.004-.762-1.509-1.423-3.704-1.768 2.649-.35 4.496-1.113 4.496-2.005 0-.833-1.535-1.549-3.87-1.923 2.862-.405 4.842-1.242 4.849-2.221.004-1.156-2.695-2.138-6.373-2.477v.397c2.916.32 5.014 1.128 5.006 2.068-.004 1.066-2.682 1.938-6.199 2.104l.222-6.406h.922v-1.653h1.787v1.816c6.312 2.943 11.049 2.032 11.049 2.032 10.75 0 11.051-9.058 11.051-9.058-2.989 3.025-7.468 0-7.468 0zm-25.375 15.329c0-.799 1.754-1.491 4.221-1.765l1.085.066.176 3.566c-3.113-.158-5.482-.928-5.482-1.867zm.685 3.694c.005-.72 1.604-1.329 3.837-1.561v-.018l.973.066.16 3.224c-2.82-.149-4.978-.866-4.97-1.711zm.711 3.353c0-.632 1.402-1.179 3.37-1.388v-.035l.906.058.139 2.843c-2.497-.114-4.414-.728-4.414-1.478zm.773 2.795c0-.511 1.114-.943 2.678-1.132l.975.063.113 2.281c-2.118-.068-3.766-.583-3.766-1.212zm1.063 2.292c0-.404.865-.75 2.092-.896l.62.027.09 1.832c-1.595-.083-2.802-.479-2.802-.963zm6.822 0c0 .476-1.195.876-2.768.963l.062-1.84.475-.037c1.303.13 2.231.492 2.231.913zm.675-2.292c0 .586-1.445 1.082-3.373 1.204l.078-2.265.769-.04c1.475.193 2.525.61 2.525 1.1zm1.12-2.795c0 .684-1.603 1.255-3.78 1.439l-.082-.012-.008.02-.535.036.1-2.826.922-.044c1.97.209 3.384.743 3.384 1.388zm.69-3.278c0 .853-2.166 1.533-4.991 1.644l.117-3.228.965-.056v.016c2.281.256 3.921.884 3.909 1.624zm-3.536-5.528c2.452.275 4.209.959 4.209 1.758 0 .946-2.397 1.721-5.54 1.867l.125-3.554 1.206-.071zm-2.319-17.688c-1.289 0-2.329-1.053-2.329-2.353 0-1.3 1.041-2.358 2.329-2.358 1.283 0 2.327 1.058 2.327 2.358s-1.045 2.353-2.327 2.353z" sketch:type="MSShapeGroup" fill="#EC1D25"/></svg>